<?xml version="1.0" encoding="utf-8"?>
<!-- Generator: Avocode 2.6.0 - http://avocode.com -->
<svg height="19" width="34" xmlns:xlink="http://www.w3.org/1999/xlink" xmlns="http://www.w3.org/2000/svg" viewBox="0 0 34 19">
    <path fill="#9b9b9b" fill-rule="evenodd" d="M 30.25 12.01 L 29.24 12.65 L 28.48 12.39 L 28.98 9.73 C 28.98 9.73 30.63 8.47 30.63 8.21 C 30.63 7.96 29.74 6.31 29.74 6.31 L 30.63 5.3 L 31.52 7.83 L 33.8 9.73 L 32.53 6.94 L 31.52 6.31 L 31.52 4.79 L 31.52 2.38 L 30.5 2.63 L 30.5 1.62 L 31.39 0.86 L 30.76 0.1 L 28.1 2.25 L 28.35 3.4 L 26.96 4.28 L 24.67 5.42 L 24.55 6.31 L 23.03 6.69 L 22.27 6.56 L 21 6.82 L 20.36 5.55 L 18.08 6.56 L 15.8 8.47 L 15.29 7.2 L 13.39 8.59 L 10.1 8.09 L 8.32 8.34 L 8.7 7.2 L 9.59 7.83 L 10.22 7.32 L 9.21 5.55 L 6.55 8.09 L 4.27 9.48 L 4.39 13.41 C 4.39 13.41 3 14.68 3 14.93 C 3 15.18 4.27 17.84 4.27 17.84 L 5.28 16.45 L 6.93 14.68 L 10.48 16.32 L 11.37 15.06 L 13.77 15.44 L 17.32 18.48 L 20.11 17.84 L 20.74 17.21 L 25.94 17.08 L 26.32 15.44 L 27.46 14.42 L 28.35 15.56 L 30.5 15.31 L 30.88 17.84 L 31.9 16.83 L 31.65 13.54 L 30.25 12.01 L 30.25 12.01 Z M 13.01 6.82 L 14.28 5.8 L 15.55 5.68 L 15.55 5.17 L 13.77 5.42 L 12.51 6.69 L 12.51 7.45 L 13.01 7.58 L 13.01 6.82 L 13.01 6.82 Z M 32.41 12.52 L 32.66 12.14 L 30.76 10.75 L 30.76 11.25 L 33.17 13.79 L 33.42 13.28 L 32.79 13.03 L 32.41 12.52 Z M 2.11 15.2 C 2.47 14.99 3.04 14.85 3.04 14.85 L 1.47 14.1 L 0 14.77 L 1.37 15.71 C 1.37 15.71 1.81 15.38 2.11 15.2 Z M 1.84 8.74 L 0.7 8 L 0 8.57 L 0.83 9.52 L 1.84 8.74 Z M 1.84 8.74" />
</svg>
