<?xml version="1.0" encoding="utf-8"?>
<!-- Generator: Avocode 2.3.2-ea60620 - http://avocode.com -->
<svg height="11" width="23" xmlns:xlink="http://www.w3.org/1999/xlink" xmlns="http://www.w3.org/2000/svg" viewBox="0 0 23 11">
    <path fill="#40454c" fill-rule="evenodd" d="M 6.65 11 L 7.67 10.65 L 8.49 10.91 L 9.92 10.34 L 10.34 8.85 L 12.64 7.9 L 13.43 7.68 L 13.28 8.53 L 13.88 8.67 L 15.94 6.53 L 17.85 6.48 L 19.36 5.07 L 21.16 4.16 L 22.36 3.68 L 22.31 2.95 L 19.29 1.62 L 14.3 1.68 L 13.19 2.16 L 10.77 0.82 L 9.26 1.79 L 9.25 3.06 L 7.99 2.77 L 5.91 1.98 L 4.43 2.66 L 5.11 3.55 L 3.01 4.99 L 3.99 5.62 L 4 6.16 L 5.24 6.16 L 5.92 5.31 L 6.5 5.8 L 6.12 6.31 L 7.54 6.93 L 8.51 6.86 L 8.68 7.44 L 7.04 7.85 L 5.86 8.67 L 4.59 8.2 L 3.81 8.63 L 3.76 9.38 L 3.18 9.29 L 2.68 8.51 L 1.65 8.65 L 0.78 9.55 L 1.58 10.24 L 3.41 10.14 L 4.05 10.86 L 5.31 10.01 L 6.65 11 Z M 6.65 11" />
</svg>