<?xml version="1.0" encoding="utf-8"?>
<!-- Generator: Avocode 2.3.2-ea60620 - http://avocode.com -->
<svg height="17" width="21" xmlns:xlink="http://www.w3.org/1999/xlink" xmlns="http://www.w3.org/2000/svg" viewBox="0 0 21 17">
    <path fill="#40454c" fill-rule="evenodd" d="M 19.44 11.94 L 18.65 11.04 L 19.18 10.5 L 19.25 9.39 L 19.93 9.2 L 19.89 7.22 L 20.66 6.51 L 21 6.28 L 20.87 5.37 L 19.52 5.87 L 18.91 5.09 L 18.74 2.86 L 16.85 0.54 L 15.38 1.23 L 14.51 1.63 L 13.39 1.23 L 12.08 1.25 L 11.23 0.46 L 10.5 0.64 L 10.03 0.14 L 9.19 0.33 L 8.65 0.97 L 7.96 1.06 L 6.92 1.26 L 6.69 1.65 L 5.22 0.93 L 4.54 1.77 L 4 1.84 L 4.23 2.47 L 3.66 3.34 L 2.15 3.77 L 0.63 3.95 L 0 4.19 L 0.33 5.03 L 0.39 5.66 L 0.28 7.13 L 1.59 6.2 L 1.95 7.06 L 2.24 8.85 L 4.72 10.2 C 4.72 10.2 7.29 12.1 7.2 12.16 C 7.11 12.22 7.9 12.8 7.9 12.8 L 7.37 15.05 L 8.58 16.91 L 9.32 15.97 L 10.05 14.61 L 12.59 13.83 L 14.84 13.07 L 15.96 13.66 L 17.15 13.31 L 17.05 12.63 L 18.29 11.79 L 19.04 12.4 L 19.44 11.94 Z M 19.44 11.94" />
</svg>