<?xml version="1.0" encoding="utf-8"?>
<!-- Generator: Avocode 2.4.5 - http://avocode.com -->
<svg height="17" width="20" xmlns:xlink="http://www.w3.org/1999/xlink" xmlns="http://www.w3.org/2000/svg" viewBox="0 0 20 17">
    <path fill="#40454c" fill-rule="evenodd" d="M 12.25 16.07 L 13.53 15.8 L 14.58 17 L 15.23 16.32 L 14.57 14.99 L 15.78 13.75 L 16.93 13.61 L 15.82 10.8 L 16.74 10.02 L 17.79 10.98 L 19.28 9.6 L 17.22 8.26 L 15.73 6.84 L 14.97 5.06 L 15.31 2.29 L 13.66 1.41 L 12.33 2.32 L 12.19 1.22 L 9.83 0.46 L 8.7 1.73 L 7.2 1.56 L 6.3 2.91 L 7.67 3.59 L 6.9 4.19 L 5.54 4.19 L 5.14 6.12 L 5.67 7.3 L 4.75 7.88 L 4.17 6.9 L 2.59 8.34 L 0.73 8.1 L 1.98 11.69 L 0 13.12 L 1.27 14.5 L 0.83 15.83 L 2.51 15.95 L 3.3 14.03 L 8.19 15.27 L 12.25 16.07 Z M 12.25 16.07" />
</svg>