<?xml version="1.0" encoding="utf-8"?>
<!-- Generator: Avocode 2.3.2-ea60620 - http://avocode.com -->
<svg height="13" width="22" xmlns:xlink="http://www.w3.org/1999/xlink" xmlns="http://www.w3.org/2000/svg" viewBox="0 0 22 13">
    <path fill="#40454c" fill-rule="evenodd" d="M 17.08 8.4 L 17.34 8.08 L 15.62 5.84 L 15.66 4.82 L 16.75 4.37 L 17.5 3.54 L 19.8 2.12 L 20.24 1.41 L 21.63 0.79 L 21.76 0.21 L 18.31 1.83 L 17.78 2 L 16.53 2.91 L 14.04 3.51 L 11.51 4.42 L 9.09 4.12 L 7.67 3.99 L 6.78 3.44 C 6.78 3.44 7.07 4.84 6.9 5.29 C 6.73 5.75 5.99 6.39 5.99 6.39 L 4.25 5.72 L 3.16 6.28 L 2.43 7.49 L 1.72 7.34 L 1.1 6.67 L 0.76 7.48 L 1.37 8.02 L 1.2 8.65 L 2.04 9.56 L 2.25 10.83 L 4.69 11.64 L 6.43 11.45 L 6.84 12.47 L 7.77 12.48 L 7.54 11.24 L 9.07 10.76 L 10.82 11.02 L 13 9.7 L 13.41 8.43 C 13.41 8.43 13.81 7.98 14.33 8.06 C 14.84 8.13 15.32 8.49 15.32 8.49 L 16.25 8.06 L 17.08 8.4 Z M 17.08 8.4" />
</svg>