<?xml version="1.0" encoding="utf-8"?>
<!-- Generator: Avocode 2.6.0 - http://avocode.com -->
<svg height="19" width="34" xmlns:xlink="http://www.w3.org/1999/xlink" xmlns="http://www.w3.org/2000/svg" viewBox="0 0 34 19">
    <path fill="#0083cd" fill-rule="evenodd" d="M 30.15 12.01 L 29.14 12.65 L 28.38 12.39 L 28.88 9.73 C 28.88 9.73 30.53 8.47 30.53 8.21 C 30.53 7.96 29.64 6.31 29.64 6.31 L 30.53 5.3 L 31.41 7.83 L 33.68 9.73 L 32.42 6.94 L 31.41 6.31 L 31.41 4.79 L 31.41 2.38 L 30.4 2.63 L 30.4 1.62 L 31.28 0.86 L 30.65 0.1 L 28 2.25 L 28.25 3.4 L 26.86 4.28 L 24.59 5.42 L 24.46 6.31 L 22.95 6.69 L 22.19 6.56 L 20.93 6.82 L 20.29 5.55 L 18.02 6.56 L 15.75 8.47 L 15.24 7.2 L 13.35 8.59 L 10.06 8.09 L 8.29 8.34 L 8.67 7.2 L 9.56 7.83 L 10.19 7.32 L 9.18 5.55 L 6.53 8.09 L 4.25 9.48 L 4.38 13.41 C 4.38 13.41 2.99 14.68 2.99 14.93 C 2.99 15.18 4.25 17.84 4.25 17.84 L 5.26 16.45 L 6.91 14.68 L 10.44 16.32 L 11.33 15.06 L 13.73 15.44 L 17.26 18.48 L 20.04 17.84 L 20.67 17.21 L 25.85 17.08 L 26.23 15.44 L 27.37 14.42 L 28.25 15.56 L 30.4 15.31 L 30.78 17.84 L 31.79 16.83 L 31.54 13.54 L 30.15 12.01 L 30.15 12.01 Z M 12.97 6.82 L 14.23 5.8 L 15.49 5.68 L 15.49 5.17 L 13.73 5.42 L 12.46 6.69 L 12.46 7.45 L 12.97 7.58 L 12.97 6.82 L 12.97 6.82 Z M 32.29 12.52 L 32.55 12.14 L 30.65 10.75 L 30.65 11.25 L 33.05 13.79 L 33.3 13.28 L 32.67 13.03 L 32.29 12.52 Z M 2.11 15.2 C 2.46 14.99 3.03 14.85 3.03 14.85 L 1.47 14.1 L 0 14.77 L 1.36 15.71 C 1.36 15.71 1.81 15.38 2.11 15.2 Z M 1.83 8.74 L 0.7 8 L 0 8.57 L 0.83 9.52 L 1.83 8.74 Z M 1.83 8.74" />
</svg>