<?xml version="1.0" encoding="utf-8"?>
<!-- Generator: Avocode 2.3.2-ea60620 - http://avocode.com -->
<svg height="16" width="16" xmlns:xlink="http://www.w3.org/1999/xlink" xmlns="http://www.w3.org/2000/svg" viewBox="0 0 16 16">
    <path stroke-linejoin="miter" stroke-linecap="butt" stroke-width="1" stroke="#979797" fill="none" fill-rule="evenodd" d="M 15.63 5.79 C 15.3 2.4 11.61 0 8 0 C 3.58 0 0 3.58 0 8 C 0 12.42 3.58 16 8 16 C 9.94 16 11.71 15.31 13.1 14.16" />
    <path stroke-linejoin="miter" stroke-linecap="butt" stroke-width="1" stroke="#979797" fill="none" fill-rule="evenodd" d="M 10.09 4.99 C 10.09 4.99 10.48 9.97 8.72 10.69 C 6.95 11.41 5.39 10.88 4.68 9.4 C 3.97 7.92 4.57 5.66 6.52 4.85 C 8.47 4.04 10.09 4.99 10.09 4.99 Z M 10.09 4.99" />
    <path stroke-linejoin="miter" stroke-linecap="butt" stroke-width="1" stroke="#979797" fill="none" fill-rule="evenodd" d="M 10.06 4.69 C 10.06 4.69 10.16 10.98 13.14 11.04 C 16.12 11.1 15.14 5.84 15.07 5.41" />
</svg>