<?xml version="1.0" encoding="utf-8"?>
<!-- Generator: Avocode 2.3.2-ea60620 - http://avocode.com -->
<svg height="80" width="80" xmlns:xlink="http://www.w3.org/1999/xlink" xmlns="http://www.w3.org/2000/svg" viewBox="0 0 80 80">
    <path fill="#3b5b98" fill-rule="evenodd" d="M 0 0 L 80 0 L 80 80 L 0 80 L 0 0 Z M 0 0" />
    <path fill="#ffffff" fill-rule="evenodd" d="M 50.22 40 L 43.56 40 L 43.56 63.56 L 33.78 63.56 L 33.78 40 L 29.11 40 L 29.11 31.78 L 33.78 31.78 L 33.78 26.44 C 33.78 22.67 35.78 16.67 43.56 16.67 L 50.89 16.67 L 50.89 24.44 L 45.56 24.44 C 44.67 24.44 43.33 24.67 43.33 26.67 L 43.33 31.33 L 50.67 31.33 L 50.22 40 L 50.22 40 Z M 50.22 40" />
</svg>