<?xml version="1.0" encoding="utf-8"?>
<!-- Generator: Avocode 2.3.2-ea60620 - http://avocode.com -->
<svg height="81" width="80" xmlns:xlink="http://www.w3.org/1999/xlink" xmlns="http://www.w3.org/2000/svg" viewBox="0 0 80 81">
    <path fill="#d6492e" fill-rule="evenodd" d="M 0 0.45 L 80 0.45 L 80 80.74 L 0 80.74 L 0 0.45 Z M 0 0.45" />
    <path fill="#ffffff" fill-rule="evenodd" d="M 44.11 20.07 L 31.74 20.07 C 30.37 20.07 29.23 20.29 27.85 20.73 C 23.5 22.06 20.3 25.8 20.3 29.55 C 20.3 34.84 24.65 39.02 30.37 39.02 C 30.14 39.24 30.14 39.91 30.14 40.35 C 30.14 41.01 30.37 41.89 30.83 42.55 C 25.33 42.55 20.3 44.97 18.46 48.94 C 18.24 50.26 17.78 51.14 17.78 52.03 C 17.78 52.91 17.78 54.01 18.46 54.89 C 19.84 56.87 22.36 58.42 25.56 59.3 C 27.17 59.52 29.23 59.96 31.06 59.96 C 32.66 59.96 34.26 59.74 35.87 59.3 C 40.67 57.97 44.11 54.67 44.11 50.7 C 44.11 46.74 42.73 44.31 39.53 42.11 C 37.93 41.23 36.55 39.69 36.55 39.24 C 36.55 38.58 36.55 38.36 38.61 36.82 C 41.13 34.84 42.51 32.41 42.51 29.99 C 42.51 27.57 41.82 25.58 40.45 24.04 L 41.36 24.04 C 41.59 24.04 41.59 23.82 42.05 23.82 L 44.57 21.84 C 44.8 21.84 44.8 21.18 44.8 20.95 C 44.8 20.51 44.34 20.07 44.11 20.07 L 44.11 20.07 Z M 26.48 29.33 C 26.25 27.35 26.48 25.58 27.85 24.26 C 28.54 23.6 29.45 23.38 30.37 23.38 C 33.35 23.6 35.87 26.46 36.32 29.99 C 36.55 32.19 36.09 33.74 34.95 35.06 C 34.26 35.72 33.35 35.94 32.43 35.94 C 29.45 35.94 26.71 32.85 26.48 29.33 L 26.48 29.33 Z M 38.84 50.04 L 38.84 50.92 C 38.84 54.45 36.32 56.21 31.06 56.21 C 27.17 56.21 23.96 54.01 23.96 50.92 C 23.96 48.06 27.62 45.63 31.74 45.63 C 32.66 45.63 33.35 45.63 34.26 45.86 C 34.49 46.08 34.95 46.08 35.18 46.52 C 37.24 47.84 38.61 48.5 38.84 50.04 L 38.84 50.04 Z M 38.84 50.04" />
    <path fill="#ffffff" fill-rule="evenodd" d="M 61.99 41.07 C 61.99 41.78 61.76 42.01 61.06 42.01 L 54.13 42.01 L 54.13 49.05 C 54.13 49.75 53.9 49.99 53.2 49.99 L 51.12 49.99 C 50.43 49.99 50.2 49.75 50.2 49.05 L 50.2 42.01 L 43.26 42.01 C 42.57 42.01 42.34 41.78 42.34 41.07 L 42.34 39.19 C 42.34 38.49 42.57 38.26 43.26 38.26 L 50.2 38.26 L 50.2 30.98 C 50.2 30.28 50.43 30.04 51.12 30.04 L 53.2 30.04 C 53.9 30.04 54.13 30.28 54.13 30.98 L 54.13 38.02 L 61.06 38.02 C 61.76 38.02 61.99 38.26 61.99 38.96 L 61.99 41.07 L 61.99 41.07 Z M 61.99 41.07" />
</svg>