<?xml version="1.0" encoding="utf-8"?>
<!-- Generator: Avocode 2.3.2-ea60620 - http://avocode.com -->
<svg height="19" width="12" xmlns:xlink="http://www.w3.org/1999/xlink" xmlns="http://www.w3.org/2000/svg" viewBox="0 0 12 19">
    <path stroke-linejoin="miter" stroke-linecap="butt" stroke-width="1" stroke="#9b9b9b" fill="#ffffff" fill-rule="evenodd" d="M 7 12 L 7 11 L 7 11 L 8 11 C 10.2 11 12 9.21 12 7 L 12 4 C 12 1.79 10.21 0 8 0 L 4 0 C 1.8 0 0 1.79 0 4 L 0 7 C 0 8.86 1.27 10.43 3 10.87 L 3 19 L 6 19 L 11 19 L 11 16 L 7 16 L 7 15 L 11 15 L 11 12 L 7 12 Z M 7 12" />
    <path stroke-linejoin="miter" stroke-linecap="butt" stroke-width="1" stroke="#9b9b9b" fill="#ffffff" fill-rule="evenodd" d="M 3 5 C 3 3.9 3.9 3 5 3 L 7 3 C 8.11 3 9 3.89 9 5 L 9 6 C 9 7.1 8.1 8 7 8 L 5 8 C 3.89 8 3 7.11 3 6 L 3 5 Z M 3 5" />
</svg>