<?xml version="1.0" encoding="utf-8"?>
<!-- Generator: Avocode 2.3.2-ea60620 - http://avocode.com -->
<svg height="81" width="80" xmlns:xlink="http://www.w3.org/1999/xlink" xmlns="http://www.w3.org/2000/svg" viewBox="0 0 80 81">
    <path fill="#2665a9" fill-rule="evenodd" d="M 0 0.33 L 80 0.33 L 80 80.33 L 0 80.33 L 0 0.33 Z M 0 0.33" />
    <path fill="#ffffff" fill-rule="evenodd" d="M 50.22 22.56 C 52.67 22.56 54.89 24.78 54.89 27.22 C 54.89 29.67 52.67 31.89 50.22 31.89 C 47.78 31.89 45.56 29.67 45.56 27.22 C 45.11 24.33 47.33 22.56 50.22 22.56 L 50.22 22.56 Z M 50.22 22.56" />
    <path fill="#ffffff" fill-rule="evenodd" d="M 29.78 22.56 C 32.22 22.56 34.44 24.78 34.44 27.22 C 34.44 29.67 32.22 31.89 29.78 31.89 C 27.33 31.89 25.11 29.67 25.11 27.22 C 25.11 24.33 27.33 22.56 29.78 22.56 L 29.78 22.56 Z M 29.78 22.56" />
    <path fill="#ffffff" fill-rule="evenodd" d="M 65.11 55.89 C 64.44 56.11 64.22 56.11 63.56 56.11 C 62.67 56.11 61.56 55.44 61.11 54.56 L 58.89 50.78 C 55.78 53.89 49.78 58.11 40.22 58.11 C 31.11 58.11 24.89 53.89 21.56 50.78 L 19.33 54.56 C 18.67 55.44 17.78 56.11 16.89 56.11 C 16.22 56.11 16 56.11 15.33 55.89 C 13.78 55 13.33 53 14.44 51.67 L 20.44 41.44 C 21.33 39.89 23.33 39.44 24.67 40.56 C 26.22 41.44 26.67 43.44 25.56 44.78 L 24.44 45.67 C 26.67 47.89 31.78 52.33 40 52.33 C 48.67 52.33 53.56 47.89 55.56 45.67 L 54.89 44.78 C 54 43.22 54.67 41.67 55.78 40.56 C 57.33 39.67 58.89 40.33 60 41.44 L 66 51.67 C 66.89 53 66.67 54.78 65.11 55.89 L 65.11 55.89 Z M 65.11 55.89" />
</svg>