<?xml version="1.0" encoding="utf-8"?>
<!-- Generator: Avocode 2.3.2-ea60620 - http://avocode.com -->
<svg height="81" width="80" xmlns:xlink="http://www.w3.org/1999/xlink" xmlns="http://www.w3.org/2000/svg" viewBox="0 0 80 81">
    <path fill="#ed802b" fill-rule="evenodd" d="M 0 0.33 L 80 0.33 L 80 80.33 L 0 80.33 L 0 0.33 Z M 0 0.33" />
    <path fill="#ffffff" fill-rule="evenodd" d="M 43.78 18.78 C 37.78 16.78 31.33 19.67 29.11 25.67 C 26.89 31.67 30 38.11 36 40.33 C 42 42.33 48.44 39.44 50.67 33.44 C 52.67 27.22 49.78 21 43.78 18.78 L 43.78 18.78 Z M 44.44 31 C 43.56 33.44 40.67 34.78 38 33.89 C 35.56 33.22 34.22 30.33 35.11 27.44 C 36 25 38.89 23.67 41.56 24.56 C 44 25.67 45.33 28.56 44.44 31 L 44.44 31 Z M 44.44 31" />
    <path fill="#ffffff" fill-rule="evenodd" d="M 52.22 45.89 C 51.33 47.89 47.78 49.44 46.22 49.67 C 44.67 49.89 44.67 50.33 44.67 50.33 L 50.44 56.11 C 51.78 57 52.67 59 51.33 60.78 C 50.44 62.33 48.44 63.22 46.89 62.11 C 44.89 60.78 40 55.44 40 55.44 L 34 61.44 C 34 61.44 32.44 63 30.89 62.33 C 29.33 61.67 28 60.33 28.44 58.56 C 28.67 56.56 30.44 55.67 30.44 55.67 L 36.22 50.33 C 36.22 50.33 31.78 49 29.78 47.89 C 27.78 46.56 27.56 45 28.22 43.44 C 28.89 41.89 30.44 41.22 31.78 41.44 C 33.11 41.67 34.67 43 36.89 43.67 C 38.89 44.33 42.22 45 45.56 43.44 C 48.67 42.11 49.78 41 51.56 41.44 C 51.56 42.11 52.89 44.11 52.22 45.89 L 52.22 45.89 Z M 52.22 45.89" />
</svg>