<?xml version="1.0" encoding="utf-8"?>
<!-- Generator: Avocode 2.3.2-ea60620 - http://avocode.com -->
<svg height="81" width="80" xmlns:xlink="http://www.w3.org/1999/xlink" xmlns="http://www.w3.org/2000/svg" viewBox="0 0 80 81">
    <path fill="#6bacdf" fill-rule="evenodd" d="M 0 0.78 L 80 0.78 L 80 80.78 L 0 80.78 L 0 0.78 Z M 0 0.78" />
    <path fill="#ffffff" fill-rule="evenodd" d="M 61.56 27.44 C 60 28.11 58.22 28.56 56.44 28.78 C 58.22 27.67 59.56 25.89 60.22 23.89 C 58.44 25 56.67 25.67 54.67 26.11 C 53.11 24.33 50.67 23.22 48.22 23.22 C 43.33 23.22 39.33 27.22 39.33 32.11 C 39.33 32.78 39.33 33.44 39.56 34.11 C 32.22 33.67 25.78 30.33 21.33 25 C 20.67 26.33 20.22 27.89 20.22 29.44 C 20.22 32.56 21.78 35.22 24.22 36.78 C 22.67 36.78 21.33 36.33 20.22 35.67 L 20.22 35.67 C 20.22 39.89 23.33 43.44 27.33 44.33 C 26.67 44.56 25.78 44.56 25.11 44.56 C 24.44 44.56 24 44.56 23.56 44.33 C 24.67 47.89 28 50.33 31.78 50.56 C 28.67 53 24.89 54.33 20.89 54.33 C 20.22 54.33 19.56 54.33 18.89 54.11 C 22.89 56.56 27.33 58.11 32.44 58.11 C 48.67 58.11 57.56 44.78 57.56 33 L 57.56 31.89 C 58.89 30.78 60.22 29.22 61.56 27.44 L 61.56 27.44 Z M 61.56 27.44" />
</svg>