<?xml version="1.0" encoding="utf-8"?>
<!-- Generator: Avocode 2.3.2-ea60620 - http://avocode.com -->
<svg height="81" width="80" xmlns:xlink="http://www.w3.org/1999/xlink" xmlns="http://www.w3.org/2000/svg" viewBox="0 0 80 81">
    <path fill="#4c75a3" fill-rule="evenodd" d="M 0 0.33 L 80 0.33 L 80 80.33 L 0 80.33 L 0 0.33 Z M 0 0.33" />
    <path fill="#ffffff" fill-rule="evenodd" d="M 53.56 41.44 C 52.22 40.11 51.33 39.22 48.89 39 L 48.89 38.78 C 50.44 38.11 51.78 37.22 52.67 35.89 C 53.56 35 54 33.44 54 31.67 C 54 29.89 53.78 28.78 53.11 27.89 C 52.44 27 51.11 25.89 50 25.44 C 48.67 24.78 47.11 24.56 45.78 24.11 C 44.44 23.89 41.33 23.89 38.44 23.89 L 24.22 23.89 L 24.22 57.22 L 40 57.22 C 42.89 57.22 45.11 57 46.67 56.56 C 48.22 55.89 49.78 55.22 51.33 54.33 C 52.67 53.44 53.56 52.33 54.22 51.22 C 55.11 49.89 55.56 48.78 55.78 47 C 55.78 44.56 54.89 42.78 53.56 41.44 L 53.56 41.44 Z M 34.67 29.89 L 35.56 29.89 L 38.67 29.89 C 39.56 29.89 40.67 29.89 41.11 30.11 C 41.78 30.33 42.44 30.78 42.67 31.44 C 42.89 32.11 42.89 32.33 42.89 33 C 42.89 33.67 42.89 34.33 42.67 35 C 42.44 35.67 42 35.89 41.11 36.33 C 40.44 36.33 39.56 36.56 38.67 36.56 C 37.33 36.56 37.33 36.56 36.22 36.78 L 34.67 36.78 L 34.67 29.89 L 34.67 29.89 Z M 44.67 48.33 C 44.44 49 43.78 49.67 42.67 49.89 C 41.78 50.11 40.67 50.56 39.56 50.56 L 35.11 50.56 L 34.44 50.56 L 34.44 42.56 L 36.44 42.56 L 39.33 42.56 C 40.67 42.56 41.78 42.56 42.44 42.78 C 43.33 42.78 44.44 43.44 44.67 43.67 C 44.89 44.33 45.33 45 45.33 45.89 C 45.33 47.22 45.11 47.67 44.67 48.33 L 44.67 48.33 Z M 44.67 48.33" />
</svg>