<?xml version="1.0" encoding="UTF-8" standalone="no"?>
<svg width="30px" height="30px" viewBox="0 0 30 30" version="1.1" xmlns="http://www.w3.org/2000/svg" xmlns:xlink="http://www.w3.org/1999/xlink" xmlns:sketch="http://www.bohemiancoding.com/sketch/ns">
    <!-- Generator: Sketch 3.5.1 (25234) - http://www.bohemiancoding.com/sketch -->
    <title>12 plus</title>
    <desc>Created with Sketch.</desc>
    <defs>
        <path id="path-1" d="M0,0.194554455 L29.850297,0.194554455 L29.850297,30 L0,30 L0,0.194554455 Z"></path>
    </defs>
    <g id="MENU" stroke="none" stroke-width="1" fill="none" fill-rule="evenodd" sketch:type="MSPage">
        <g id="Desktop-HD-Menu-WIDE" sketch:type="MSArtboardGroup" transform="translate(-588.000000, -1558.000000)">
            <g id="Podval" sketch:type="MSLayerGroup" transform="translate(241.000000, 1260.000000)">
                <g id="возрастная-категория-+-vozrast-category" transform="translate(60.000000, 298.000000)">
                    <g id="12-plus" transform="translate(287.000000, 0.000000)">
                        <path d="M9.49075248,8.2780396 L7.43590099,8.2780396 C6.64580198,8.2780396 6.23916832,8.41348515 6.23916832,9.06813861 L6.23916832,9.81308911 C6.23916832,10.4680396 6.64580198,10.6031881 7.43590099,10.6031881 L7.91025743,10.6031881 C8.20372277,10.6031881 8.33916832,10.761505 8.33916832,11.2129901 L8.33916832,20.9674455 C8.33916832,21.7578416 8.47461386,22.1641782 9.12956436,22.1641782 L9.89708911,22.1641782 C10.5520396,22.1641782 10.6874851,21.7578416 10.6874851,20.9674455 L10.6874851,9.06813861 C10.6874851,8.41348515 10.2808515,8.2780396 9.49075248,8.2780396" id="Fill-1" fill="#FEFEFE" sketch:type="MSShapeGroup"></path>
                        <g id="Group-5">
                            <mask id="mask-2" sketch:name="Clip 4" fill="white">
                                <use xlink:href="#path-1"></use>
                            </mask>
                            <g id="Clip-4"></g>
                            <path d="M27.8855644,13.4258911 C27.8855644,13.764802 27.7275446,13.945099 27.4112079,13.945099 L25.8984356,13.945099 L25.8984356,12.8841089 C25.8984356,12.0940099 25.7855644,11.6873762 25.1080396,11.6873762 L24.4308119,11.6873762 C23.7535842,11.6873762 23.6404158,12.0940099 23.6404158,12.8841089 L23.6404158,13.945099 L22.5794257,13.945099 C21.7890297,13.945099 21.382396,14.0582673 21.382396,14.735495 L21.382396,15.4581683 C21.382396,16.135396 21.7890297,16.2485644 22.5794257,16.2485644 L23.6404158,16.2485644 L23.6404158,17.3095545 C23.6404158,18.0996535 23.7535842,18.5062871 24.4308119,18.5062871 L25.1080396,18.5062871 C25.7855644,18.5062871 25.8984356,18.0996535 25.8984356,17.3095545 L25.8984356,16.2485644 L27.4112079,16.2485644 C27.7049703,16.2485644 27.8629901,16.4065842 27.8855644,16.6997525 L27.8855644,20.1319307 C27.8855644,20.9674752 27.6369505,21.5995545 27.0497228,22.1642079 L22.0147723,27.1991584 C21.4278416,27.7863861 20.7728911,28.0575743 19.9602178,28.0575743 L9.88942574,28.0575743 C9.07675248,28.0575743 8.42209901,27.7863861 7.83516832,27.1991584 L2.79992079,22.1642079 C2.21269307,21.5769802 1.94150495,20.9674752 1.96437624,20.1319307 L1.96437624,10.174604 C1.96437624,9.33905941 2.23526733,8.61638614 2.84506931,8.00688119 L7.97061386,2.81331683 C8.48982178,2.29440594 9.14477228,2.13608911 9.88942574,2.13608911 L19.9602178,2.13608911 C20.7054653,2.13608911 21.3598218,2.29440594 21.8793267,2.81331683 L27.0048713,8.00688119 C27.591802,8.61638614 27.8855644,9.33905941 27.8855644,10.174604 L27.8855644,13.4258911 Z M23.2563564,1.5040099 C22.3762574,0.646188119 21.2698218,0.194405941 19.9373465,0.194405941 L9.912,0.194405941 C8.57982178,0.194405941 7.45110891,0.646188119 6.5929901,1.5040099 L1.28685149,6.78757426 C0.45160396,7.62311881 0.000118811881,8.72925743 0.000118811881,9.94886139 L0.000118811881,20.1319307 C0.000118811881,21.5318317 0.474178218,22.6156931 1.42229703,23.5418317 L6.45784158,28.5767822 C7.45110891,29.5703465 8.55754455,30.0218317 9.9800198,29.9992574 L19.8702178,29.9992574 C21.2472475,29.9992574 22.3762574,29.5926238 23.392099,28.5767822 L28.4276436,23.5418317 C29.3528911,22.6156931 29.8501188,21.5092574 29.8501188,20.1319307 L29.8501188,9.94886139 C29.8501188,8.72925743 29.3983366,7.62311881 28.5627921,6.78757426 L23.2563564,1.5040099 Z" id="Fill-3" fill="#FEFEFE" sketch:type="MSShapeGroup" mask="url(#mask-2)"></path>
                        </g>
                        <path d="M20.3655446,12.5217327 C20.3655446,9.42816832 20.0720792,7.96084158 16.2787129,7.96084158 C13.6369307,7.96084158 12.4856436,8.57034653 12.4856436,11.3024257 C12.4856436,11.9119307 12.7339604,12.0702475 13.3663366,12.0702475 L13.9081188,12.0702475 C14.4273267,12.0702475 14.7433663,11.9799505 14.7433663,11.5278713 C14.7433663,10.3991584 15.1725743,10.2865842 16.2787129,10.2865842 C17.4305941,10.2865842 17.9949505,10.3991584 17.9949505,12.0025248 C17.9949505,14.4637129 16.1884158,14.5314356 14.5179208,15.2312376 C12.5985149,16.0439109 12.3047525,17.5118317 12.3047525,19.6341089 L12.3047525,20.9891584 C12.3047525,21.9827228 12.7339604,22.1404455 13.5692079,22.1404455 L19.0562376,22.1404455 C19.8914851,22.1404455 20.3206931,22.005 20.3206931,21.2603465 L20.3206931,20.5828218 C20.3206931,19.8827228 19.8914851,19.7469802 19.0562376,19.7469802 L15.059703,19.7469802 C14.7433663,19.7469802 14.6530693,19.5889604 14.6530693,19.2277723 L14.6530693,18.4825248 C14.6530693,16.0667822 20.3655446,17.5795545 20.3655446,12.5217327" id="Fill-6" fill="#FEFEFE" sketch:type="MSShapeGroup"></path>
                    </g>
                </g>
            </g>
        </g>
    </g>
</svg>