<?xml version="1.0" encoding="utf-8"?>
<!-- Generator: Avocode 2.3.2-ea60620 - http://avocode.com -->
<svg height="30" width="30" xmlns:xlink="http://www.w3.org/1999/xlink" xmlns="http://www.w3.org/2000/svg" viewBox="0 0 30 30">
    <path fill="#ffffff" fill-rule="evenodd" d="M 9.24 8.17 L 7.21 8.17 C 6.41 8.17 6.03 8.32 6.03 8.97 L 6.03 9.71 C 6.03 10.37 6.44 10.51 7.21 10.51 L 7.68 10.51 C 7.97 10.51 8.09 10.66 8.09 11.14 L 8.09 20.88 C 8.09 21.68 8.24 22.07 8.88 22.07 L 9.65 22.07 C 10.29 22.07 10.44 21.65 10.44 20.88 L 10.44 8.97 C 10.41 8.32 10.03 8.17 9.24 8.17 L 9.24 8.17 Z M 9.24 8.17" />
    <path fill="#ffffff" fill-rule="evenodd" d="M 23.18 1.4 C 22.29 0.53 21.21 0.09 19.88 0.09 L 9.97 0.09 C 8.65 0.09 7.53 0.53 6.68 1.4 L 1.44 6.68 C 0.62 7.51 0.18 8.61 0.18 9.83 L 0.18 20.02 C 0.18 21.42 0.65 22.51 1.59 23.44 L 6.59 28.49 C 7.56 29.47 8.68 29.94 10.09 29.91 L 19.88 29.91 C 21.24 29.91 22.35 29.5 23.38 28.49 L 28.38 23.44 C 29.29 22.51 29.79 21.42 29.79 20.02 L 29.79 9.86 C 29.79 8.64 29.35 7.54 28.53 6.71 L 23.18 1.4 L 23.18 1.4 Z M 27.76 13.34 C 27.76 13.66 27.62 13.84 27.29 13.84 L 25.79 13.84 L 25.79 12.77 C 25.79 11.97 25.68 11.58 25 11.58 L 24.32 11.58 C 23.65 11.58 23.53 12 23.53 12.77 L 23.53 13.84 L 22.47 13.84 C 21.68 13.84 21.29 13.96 21.29 14.64 L 21.29 15.36 C 21.29 16.04 21.71 16.16 22.47 16.16 L 23.53 16.16 L 23.53 17.23 C 23.53 18.03 23.65 18.42 24.32 18.42 L 25 18.42 C 25.68 18.42 25.79 18 25.79 17.23 L 25.79 16.16 L 27.29 16.16 C 27.59 16.16 27.74 16.31 27.76 16.6 L 27.76 20.05 C 27.76 20.88 27.53 21.5 26.94 22.07 L 21.94 27.12 C 21.35 27.71 20.71 27.98 19.91 27.98 L 9.94 27.98 C 9.15 27.98 8.5 27.71 7.91 27.12 L 2.91 22.07 C 2.32 21.48 2.06 20.88 2.09 20.05 L 2.09 10.07 C 2.09 9.24 2.35 8.52 2.97 7.9 L 8.06 2.7 C 8.56 2.2 9.24 2.02 9.97 2.02 L 19.94 2.02 C 20.68 2.02 21.32 2.17 21.85 2.7 L 26.94 7.9 C 27.53 8.52 27.82 9.24 27.82 10.07 L 27.82 13.34 L 27.76 13.34 Z M 27.76 13.34" />
    <path fill="#ffffff" fill-rule="evenodd" d="M 18.97 14.85 C 20.24 13.93 20.24 12.98 20.24 12.21 L 20.24 11.44 C 20.09 8.88 19.26 7.9 16.32 7.9 C 13.38 7.9 12.56 8.88 12.41 11.44 L 12.41 12.21 C 12.41 12.98 12.44 13.93 13.68 14.85 C 12.18 15.45 12.06 16.72 12.06 18.42 C 12.06 20.91 12.94 22.16 16.29 22.22 C 19.68 22.16 20.53 20.91 20.53 18.42 C 20.56 16.75 20.47 15.45 18.97 14.85 L 18.97 14.85 Z M 16.32 10.01 C 17.56 10.01 18.06 10.46 18.06 11.97 C 18.06 13.43 17.56 13.93 16.32 13.93 C 15.09 13.93 14.59 13.43 14.59 11.97 C 14.59 10.46 15.09 10.01 16.32 10.01 L 16.32 10.01 Z M 16.32 20.11 C 14.88 20.11 14.38 19.54 14.38 18.12 C 14.38 16.69 14.88 16.04 16.32 16.04 C 17.76 16.04 18.26 16.69 18.26 18.12 C 18.26 19.54 17.76 20.11 16.32 20.11 L 16.32 20.11 Z M 16.32 20.11" />
</svg>