<?xml version="1.0" encoding="utf-8"?>
<!-- Generator: Avocode 2.5.2 - http://avocode.com -->
<svg height="221" width="519" xmlns:xlink="http://www.w3.org/1999/xlink" xmlns="http://www.w3.org/2000/svg" viewBox="0 0 519 221">
    <path fill="#efefef" fill-rule="evenodd" d="M 166.57 176.54 L 142.98 176.54 L 142.98 218 L 85.86 218 L 85.86 176.54 L 0.46 176.54 L 0.46 134.06 L 89.52 3.84 L 142.98 3.84 L 142.98 133.33 L 166.57 133.33 L 166.57 176.54 Z M 85.86 133.33 L 85.86 108.43 C 85.86 103.74 86.03 97.42 86.37 89.46 C 86.71 81.5 86.98 77.33 87.17 76.94 L 85.56 76.94 C 82.24 84.46 78.48 91.49 74.28 98.03 L 50.55 133.33 L 85.86 133.33 Z M 336.34 111.21 C 336.34 149.1 330 176.86 317.3 194.49 C 304.61 212.12 285.17 220.93 259 220.93 C 233.41 220.93 214.13 211.73 201.14 193.32 C 188.15 174.91 181.66 147.54 181.66 111.21 C 181.66 73.13 188 45.2 200.7 27.42 C 213.39 9.65 232.83 0.76 259 0.76 C 284.49 0.76 303.75 10.02 316.79 28.52 C 329.83 47.03 336.34 74.59 336.34 111.21 L 336.34 111.21 Z M 239.22 111.21 C 239.22 135.43 240.74 152.08 243.77 161.16 C 246.79 170.25 251.87 174.79 259 174.79 C 266.23 174.79 271.33 170.1 274.31 160.72 C 277.29 151.35 278.78 134.85 278.78 111.21 C 278.78 87.48 277.26 70.86 274.23 61.33 C 271.21 51.81 266.13 47.05 259 47.05 C 251.87 47.05 246.79 51.64 243.77 60.82 C 240.74 70 239.22 86.8 239.22 111.21 L 239.22 111.21 Z M 518.13 176.54 L 494.55 176.54 L 494.55 218 L 437.42 218 L 437.42 176.54 L 352.02 176.54 L 352.02 134.06 L 441.08 3.84 L 494.55 3.84 L 494.55 133.33 L 518.13 133.33 L 518.13 176.54 Z M 437.42 133.33 L 437.42 108.43 C 437.42 103.74 437.59 97.42 437.93 89.46 C 438.27 81.5 438.54 77.33 438.74 76.94 L 437.13 76.94 C 433.8 84.46 430.04 91.49 425.85 98.03 L 402.12 133.33 L 437.42 133.33 Z M 437.42 133.33" />
</svg>