<?xml version="1.0" encoding="utf-8"?>
<!-- Generator: Avocode 2.5.3 - http://avocode.com -->
<svg height="18" width="22" xmlns:xlink="http://www.w3.org/1999/xlink" xmlns="http://www.w3.org/2000/svg" viewBox="0 0 22 18">
    <path fill="#ffffff" fill-rule="evenodd" d="M 0 0 L 0 14 L 3.3 14 L 3.3 13 L 1.1 13 L 1.1 1 L 20.9 1 L 20.9 13 L 8.8 13 L 8.8 14 L 22 14 L 22 0 L 0 0 L 0 0 Z M 18 5 L 4 5 L 4 6 L 18 6 L 18 5 L 18 5 Z M 2 17.5 L 2.9 18 L 7.2 11.3 L 6.3 10.8 L 2 17.5 L 2 17.5 Z M 4 8 L 14 8 L 14 7 L 4 7 L 4 8 L 4 8 Z M 4 8" />
</svg>