<?xml version="1.0" encoding="utf-8"?>
<!-- Generator: Avocode 2.5.2 - http://avocode.com -->
<svg height="333" width="519" xmlns:xlink="http://www.w3.org/1999/xlink" xmlns="http://www.w3.org/2000/svg" viewBox="0 0 519 333">
    <path fill="#000000" fill-rule="evenodd" d="M 166.57 288.54 L 142.98 288.54 L 142.98 330 L 85.86 330 L 85.86 288.54 L 0.46 288.54 L 0.46 246.06 L 89.52 115.84 L 142.98 115.84 L 142.98 245.33 L 166.57 245.33 L 166.57 288.54 Z M 85.86 245.33 L 85.86 220.43 C 85.86 215.74 86.03 209.42 86.37 201.46 C 86.71 193.5 86.98 189.33 87.17 188.94 L 85.56 188.94 C 82.24 196.46 78.48 203.49 74.28 210.03 L 50.55 245.33 L 85.86 245.33 Z M 336.34 223.21 C 336.34 261.1 330 288.86 317.3 306.49 C 304.61 324.12 285.17 332.93 259 332.93 C 233.41 332.93 214.13 323.73 201.14 305.32 C 188.15 286.91 181.66 259.54 181.66 223.21 C 181.66 185.13 188 157.2 200.7 139.42 C 213.39 121.65 232.83 112.76 259 112.76 C 284.49 112.76 303.75 122.02 316.79 140.52 C 329.83 159.03 336.34 186.59 336.34 223.21 L 336.34 223.21 Z M 239.22 223.21 C 239.22 247.43 240.74 264.08 243.77 273.16 C 246.79 282.25 251.87 286.79 259 286.79 C 266.23 286.79 271.33 282.1 274.31 272.72 C 277.29 263.35 278.78 246.85 278.78 223.21 C 278.78 199.48 277.26 182.86 274.23 173.33 C 271.21 163.81 266.13 159.05 259 159.05 C 251.87 159.05 246.79 163.64 243.77 172.82 C 240.74 182 239.22 198.8 239.22 223.21 L 239.22 223.21 Z M 518.13 288.54 L 494.55 288.54 L 494.55 330 L 437.42 330 L 437.42 288.54 L 352.02 288.54 L 352.02 246.06 L 441.08 115.84 L 494.55 115.84 L 494.55 245.33 L 518.13 245.33 L 518.13 288.54 Z M 437.42 245.33 L 437.42 220.43 C 437.42 215.74 437.59 209.42 437.93 201.46 C 438.27 193.5 438.54 189.33 438.74 188.94 L 437.13 188.94 C 433.8 196.46 430.04 203.49 425.85 210.03 L 402.12 245.33 L 437.42 245.33 Z M 437.42 245.33" />
    <path fill="#000000" fill-rule="evenodd" d="M 15.43 5.9 L 15.43 8.55 L 20.95 8.55 L 20.95 22 L 24.17 22 L 24.17 8.55 L 29.69 8.55 L 29.69 5.9 L 15.43 5.9 Z M 40.89 5.9 L 36.87 5.9 L 30.2 22 L 33.65 22 L 34.91 18.78 L 42.85 18.78 L 44.11 22 L 47.56 22 L 40.89 5.9 Z M 38.82 9.35 L 38.94 9.35 L 41.7 16.02 L 36.06 16.02 L 38.82 9.35 Z M 60.49 10.04 C 60.1 11.42 59.11 12.45 57.27 12.45 L 54.28 12.45 L 54.28 5.9 L 51.06 5.9 L 51.06 22 L 54.28 22 L 54.28 15.1 L 57.73 15.1 L 62.45 22 L 66.24 22 L 60.95 14.3 L 60.95 14.18 C 60.95 14.18 62.84 13.61 63.83 10.04 L 64.98 5.9 L 61.64 5.9 L 60.49 10.04 Z M 68.25 13.95 C 68.25 18.89 71.81 22.46 76.87 22.46 C 81.93 22.46 85.5 18.89 85.5 13.95 C 85.5 9 81.93 5.44 76.87 5.44 C 71.81 5.44 68.25 9 68.25 13.95 L 68.25 13.95 Z M 82.16 13.95 C 82.16 17.4 79.86 19.7 76.87 19.7 C 73.88 19.7 71.58 17.4 71.58 13.95 C 71.58 10.5 73.88 8.2 76.87 8.2 C 79.86 8.2 82.16 10.5 82.16 13.95 L 82.16 13.95 Z M 93.02 22 L 101.07 10.96 L 101.19 10.96 L 101.19 22 L 104.41 22 L 104.41 5.9 L 101.19 5.9 L 93.14 16.94 L 93.02 16.94 L 93.02 5.9 L 89.8 5.9 L 89.8 22 L 93.02 22 Z M 97.16 1.99 C 96.13 1.99 95.44 1.3 95.44 0.38 L 93.02 0.38 C 93.02 2.75 94.68 4.41 97.16 4.41 C 99.65 4.41 101.3 2.75 101.3 0.38 L 98.89 0.38 C 98.89 1.3 98.2 1.99 97.16 1.99 L 97.16 1.99 Z M 125.44 5.44 C 120.15 5.44 116.58 9 116.58 13.95 C 116.58 18.89 120.15 22.46 125.44 22.46 C 128.89 22.46 131.07 20.62 131.07 20.62 L 129.69 18.44 C 129.69 18.44 127.97 19.7 125.67 19.7 C 122.22 19.7 119.92 17.4 119.92 13.95 C 119.92 10.5 122.22 8.2 125.67 8.2 C 127.81 8.2 129.46 9.24 129.46 9.24 L 130.84 7.05 C 130.84 7.05 128.77 5.44 125.44 5.44 L 125.44 5.44 Z M 133.42 5.9 L 133.42 8.55 L 138.94 8.55 L 138.94 22 L 142.16 22 L 142.16 8.55 L 147.68 8.55 L 147.68 5.9 L 133.42 5.9 Z M 151.41 5.9 L 151.41 22 L 154.63 22 L 154.63 16.94 L 158.77 16.94 C 163.26 16.94 165.67 14.52 165.67 11.42 C 165.67 8.31 163.26 5.9 158.77 5.9 L 151.41 5.9 Z M 158.77 8.55 C 160.96 8.55 162.34 9.93 162.34 11.42 C 162.34 12.92 160.96 14.3 158.77 14.3 L 154.63 14.3 L 154.63 8.55 L 158.77 8.55 Z M 177.68 5.9 L 173.66 5.9 L 166.99 22 L 170.44 22 L 171.7 18.78 L 179.64 18.78 L 180.9 22 L 184.35 22 L 177.68 5.9 Z M 175.61 9.35 L 175.73 9.35 L 178.49 16.02 L 172.85 16.02 L 175.61 9.35 Z M 199.35 5.9 L 199.35 12.69 L 191.07 12.69 L 191.07 5.9 L 187.85 5.9 L 187.85 22 L 191.07 22 L 191.07 15.33 L 199.35 15.33 L 199.35 22 L 202.57 22 L 202.57 5.9 L 199.35 5.9 Z M 211.13 22 L 219.18 10.96 L 219.3 10.96 L 219.3 22 L 222.52 22 L 222.52 5.9 L 219.3 5.9 L 211.25 16.94 L 211.13 16.94 L 211.13 5.9 L 207.91 5.9 L 207.91 22 L 211.13 22 Z M 240.85 25.43 L 244.07 25.43 L 244.07 19.36 L 242 19.36 L 242 5.9 L 238.78 5.9 L 238.78 19.36 L 231.08 19.36 L 231.08 5.9 L 227.86 5.9 L 227.86 22 L 240.85 22 L 240.85 25.43 Z M 258.15 16.6 C 258.15 18.09 256.89 19.36 254.7 19.36 L 251.25 19.36 L 251.25 13.83 L 254.7 13.83 C 256.89 13.83 258.15 15.33 258.15 16.6 L 258.15 16.6 Z M 254.7 22 C 259.19 22 261.49 19.7 261.49 16.6 C 261.49 13.49 259.19 11.19 254.7 11.19 L 251.25 11.19 L 251.25 5.9 L 248.03 5.9 L 248.03 22 L 254.7 22 Z M 267.35 5.9 L 264.13 5.9 L 264.13 22 L 267.35 22 L 267.35 5.9 Z M 292.06 5.9 L 292.06 12.69 L 283.78 12.69 L 283.78 5.9 L 280.56 5.9 L 280.56 22 L 283.78 22 L 283.78 15.33 L 292.06 15.33 L 292.06 22 L 295.28 22 L 295.28 5.9 L 292.06 5.9 Z M 300.62 22 L 313.73 22 L 313.73 19.36 L 303.84 19.36 L 303.84 15.33 L 310.51 15.33 L 310.51 12.69 L 303.84 12.69 L 303.84 8.55 L 313.5 8.55 L 313.5 5.9 L 300.62 5.9 L 300.62 22 Z M 316.08 5.9 L 316.08 8.55 L 321.6 8.55 L 321.6 22 L 324.82 22 L 324.82 8.55 L 330.34 8.55 L 330.34 5.9 L 316.08 5.9 Z M 353.44 5.9 L 353.44 12.69 L 345.16 12.69 L 345.16 5.9 L 341.94 5.9 L 341.94 22 L 345.16 22 L 345.16 15.33 L 353.44 15.33 L 353.44 22 L 356.66 22 L 356.66 5.9 L 353.44 5.9 Z M 370.86 5.9 L 366.83 5.9 L 360.16 22 L 363.61 22 L 364.88 18.78 L 372.81 18.78 L 374.08 22 L 377.53 22 L 370.86 5.9 Z M 368.79 9.35 L 368.9 9.35 L 371.66 16.02 L 366.03 16.02 L 368.79 9.35 Z M 396.72 5.44 C 391.43 5.44 387.86 9 387.86 13.95 C 387.86 18.89 391.43 22.46 396.72 22.46 C 400.17 22.46 402.35 20.62 402.35 20.62 L 400.97 18.44 C 400.97 18.44 399.25 19.7 396.95 19.7 C 393.5 19.7 391.2 17.4 391.2 13.95 C 391.2 10.5 393.5 8.2 396.95 8.2 C 399.09 8.2 400.74 9.24 400.74 9.24 L 402.12 7.05 C 402.12 7.05 400.05 5.44 396.72 5.44 L 396.72 5.44 Z M 415.17 5.9 L 411.14 5.9 L 404.47 22 L 407.92 22 L 409.19 18.78 L 417.12 18.78 L 418.39 22 L 421.84 22 L 415.17 5.9 Z M 413.1 9.35 L 413.21 9.35 L 415.97 16.02 L 410.34 16.02 L 413.1 9.35 Z M 428.56 22 L 436.61 10.96 L 436.72 10.96 L 436.72 22 L 439.94 22 L 439.94 5.9 L 436.72 5.9 L 428.67 16.94 L 428.56 16.94 L 428.56 5.9 L 425.34 5.9 L 425.34 22 L 428.56 22 Z M 432.7 1.99 C 431.66 1.99 430.97 1.3 430.97 0.38 L 428.56 0.38 C 428.56 2.75 430.21 4.41 432.7 4.41 C 435.18 4.41 436.84 2.75 436.84 0.38 L 434.42 0.38 C 434.42 1.3 433.73 1.99 432.7 1.99 L 432.7 1.99 Z M 443.67 5.9 L 443.67 8.55 L 449.19 8.55 L 449.19 22 L 452.41 22 L 452.41 8.55 L 457.93 8.55 L 457.93 5.9 L 443.67 5.9 Z M 461.66 22 L 474.77 22 L 474.77 19.36 L 464.88 19.36 L 464.88 15.33 L 471.55 15.33 L 471.55 12.69 L 464.88 12.69 L 464.88 8.55 L 474.54 8.55 L 474.54 5.9 L 461.66 5.9 L 461.66 22 Z M 485.68 20.5 C 485.68 21.43 486.49 22.23 487.52 22.23 C 488.56 22.23 489.36 21.43 489.36 20.5 C 489.36 19.58 488.56 18.78 487.52 18.78 C 486.49 18.78 485.68 19.58 485.68 20.5 L 485.68 20.5 Z M 485.68 11.76 C 485.68 12.69 486.49 13.49 487.52 13.49 C 488.56 13.49 489.36 12.69 489.36 11.76 C 489.36 10.85 488.56 10.04 487.52 10.04 C 486.49 10.04 485.68 10.85 485.68 11.76 L 485.68 11.76 Z M 499.42 28.67 L 501.49 26.83 C 501.49 26.83 496.54 22.23 496.54 16.02 C 496.54 9.81 501.49 5.21 501.49 5.21 L 499.42 3.37 C 499.42 3.37 493.32 8.2 493.32 16.02 C 493.32 23.84 499.42 28.67 499.42 28.67 L 499.42 28.67 Z M 499.42 28.67" />
    <path fill="#565d66" fill-rule="evenodd" d="M 40.74 39.25 C 39.56 39.25 38.63 39.64 37.95 40.43 C 37.27 41.21 36.93 42.28 36.93 43.65 C 36.93 45.05 37.26 46.13 37.91 46.89 C 38.57 47.66 39.51 48.04 40.72 48.04 C 41.47 48.04 42.32 47.91 43.28 47.64 L 43.28 48.73 C 42.54 49.01 41.62 49.15 40.53 49.15 C 38.96 49.15 37.74 48.67 36.88 47.71 C 36.03 46.75 35.6 45.39 35.6 43.63 C 35.6 42.53 35.8 41.56 36.22 40.73 C 36.63 39.9 37.22 39.26 38 38.81 C 38.78 38.36 39.7 38.14 40.75 38.14 C 41.88 38.14 42.86 38.34 43.7 38.75 L 43.17 39.82 C 42.36 39.44 41.55 39.25 40.74 39.25 L 40.74 39.25 Z M 52.36 44.98 C 52.36 46.29 52.03 47.31 51.37 48.04 C 50.71 48.78 49.8 49.15 48.64 49.15 C 47.92 49.15 47.29 48.98 46.73 48.64 C 46.17 48.3 45.74 47.82 45.44 47.19 C 45.14 46.56 44.99 45.82 44.99 44.98 C 44.99 43.67 45.31 42.65 45.97 41.92 C 46.62 41.19 47.53 40.83 48.69 40.83 C 49.82 40.83 50.71 41.2 51.37 41.95 C 52.03 42.69 52.36 43.7 52.36 44.98 L 52.36 44.98 Z M 46.25 44.98 C 46.25 46 46.45 46.79 46.86 47.32 C 47.27 47.86 47.87 48.13 48.67 48.13 C 49.47 48.13 50.07 47.86 50.48 47.33 C 50.9 46.79 51.1 46.01 51.1 44.98 C 51.1 43.96 50.9 43.18 50.48 42.65 C 50.07 42.12 49.46 41.86 48.66 41.86 C 47.86 41.86 47.26 42.12 46.85 42.64 C 46.45 43.17 46.25 43.94 46.25 44.98 L 46.25 44.98 Z M 57.85 40.99 L 58.98 40.99 L 58.98 44.88 L 62.29 40.99 L 63.63 40.99 L 60.27 44.88 L 63.91 49 L 62.51 49 L 58.98 44.94 L 58.98 49 L 57.85 49 L 57.85 44.94 L 54.33 49 L 52.93 49 L 56.57 44.88 L 53.22 40.99 L 54.55 40.99 L 57.85 44.88 L 57.85 40.99 Z M 70.17 49 L 69.93 47.86 L 69.87 47.86 C 69.47 48.36 69.07 48.7 68.67 48.88 C 68.27 49.06 67.77 49.15 67.18 49.15 C 66.38 49.15 65.76 48.94 65.31 48.53 C 64.86 48.12 64.63 47.54 64.63 46.78 C 64.63 45.16 65.93 44.31 68.52 44.23 L 69.88 44.19 L 69.88 43.69 C 69.88 43.06 69.75 42.59 69.47 42.29 C 69.2 41.99 68.77 41.84 68.17 41.84 C 67.51 41.84 66.75 42.05 65.9 42.46 L 65.53 41.53 C 65.93 41.31 66.36 41.15 66.83 41.02 C 67.3 40.9 67.77 40.84 68.25 40.84 C 69.21 40.84 69.91 41.05 70.38 41.48 C 70.84 41.9 71.07 42.58 71.07 43.52 L 71.07 49 L 70.17 49 Z M 67.42 48.14 C 68.18 48.14 68.77 47.94 69.2 47.52 C 69.64 47.11 69.85 46.52 69.85 45.78 L 69.85 45.05 L 68.64 45.1 C 67.67 45.14 66.97 45.29 66.55 45.55 C 66.12 45.82 65.9 46.23 65.9 46.8 C 65.9 47.23 66.04 47.57 66.3 47.8 C 66.57 48.03 66.94 48.14 67.42 48.14 L 67.42 48.14 Z M 79.56 49 L 78.33 49 L 78.33 42.01 L 75.92 42.01 C 75.78 43.75 75.6 45.13 75.37 46.15 C 75.13 47.17 74.83 47.92 74.46 48.39 C 74.08 48.87 73.61 49.1 73.03 49.1 C 72.77 49.1 72.56 49.07 72.4 49.01 L 72.4 48.11 C 72.51 48.14 72.63 48.16 72.77 48.16 C 73.33 48.16 73.78 47.56 74.11 46.38 C 74.44 45.19 74.69 43.39 74.86 40.97 L 79.56 40.97 L 79.56 49 Z M 85.53 49.15 C 84.34 49.15 83.4 48.79 82.72 48.06 C 82.03 47.34 81.69 46.34 81.69 45.05 C 81.69 43.76 82.01 42.73 82.64 41.97 C 83.28 41.21 84.14 40.83 85.21 40.83 C 86.22 40.83 87.01 41.16 87.6 41.82 C 88.18 42.48 88.48 43.35 88.48 44.44 L 88.48 45.21 L 82.95 45.21 C 82.97 46.15 83.21 46.86 83.66 47.35 C 84.11 47.84 84.75 48.08 85.57 48.08 C 86.43 48.08 87.29 47.9 88.13 47.54 L 88.13 48.63 C 87.7 48.81 87.3 48.95 86.91 49.03 C 86.53 49.11 86.07 49.15 85.53 49.15 L 85.53 49.15 Z M 85.2 41.84 C 84.55 41.84 84.04 42.05 83.65 42.47 C 83.27 42.89 83.05 43.48 82.98 44.22 L 87.17 44.22 C 87.17 43.45 87 42.86 86.66 42.46 C 86.32 42.05 85.83 41.84 85.2 41.84 L 85.2 41.84 Z M 93.94 49.15 C 92.75 49.15 91.82 48.79 91.13 48.06 C 90.45 47.34 90.1 46.34 90.1 45.05 C 90.1 43.76 90.42 42.73 91.06 41.97 C 91.7 41.21 92.55 40.83 93.63 40.83 C 94.63 40.83 95.43 41.16 96.01 41.82 C 96.6 42.48 96.89 43.35 96.89 44.44 L 96.89 45.21 L 91.36 45.21 C 91.39 46.15 91.63 46.86 92.08 47.35 C 92.53 47.84 93.17 48.08 93.99 48.08 C 94.85 48.08 95.7 47.9 96.55 47.54 L 96.55 48.63 C 96.12 48.81 95.71 48.95 95.33 49.03 C 94.95 49.11 94.48 49.15 93.94 49.15 L 93.94 49.15 Z M 93.61 41.84 C 92.97 41.84 92.45 42.05 92.07 42.47 C 91.69 42.89 91.46 43.48 91.39 44.22 L 95.59 44.22 C 95.59 43.45 95.42 42.86 95.08 42.46 C 94.73 42.05 94.25 41.84 93.61 41.84 L 93.61 41.84 Z M 103.13 47.83 L 103.36 47.15 L 103.68 46.28 L 105.85 40.99 L 107.4 40.99 L 107.4 49 L 106.32 49 L 106.32 42.37 L 106.17 42.8 L 105.75 43.92 L 103.68 49 L 102.66 49 L 100.58 43.9 C 100.33 43.25 100.15 42.74 100.05 42.37 L 100.05 49 L 98.97 49 L 98.97 40.99 L 100.45 40.99 L 102.55 46.08 C 102.76 46.61 102.96 47.2 103.13 47.83 L 103.13 47.83 Z M 120.81 44.98 C 120.81 46.29 120.48 47.31 119.83 48.04 C 119.17 48.78 118.26 49.15 117.09 49.15 C 116.38 49.15 115.74 48.98 115.18 48.64 C 114.62 48.3 114.2 47.82 113.89 47.19 C 113.59 46.56 113.44 45.82 113.44 44.98 C 113.44 43.67 113.77 42.65 114.42 41.92 C 115.07 41.19 115.98 40.83 117.14 40.83 C 118.27 40.83 119.16 41.2 119.82 41.95 C 120.48 42.69 120.81 43.7 120.81 44.98 L 120.81 44.98 Z M 114.7 44.98 C 114.7 46 114.9 46.79 115.31 47.32 C 115.72 47.86 116.33 48.13 117.12 48.13 C 117.92 48.13 118.52 47.86 118.94 47.33 C 119.35 46.79 119.55 46.01 119.55 44.98 C 119.55 43.96 119.35 43.18 118.94 42.65 C 118.52 42.12 117.91 41.86 117.11 41.86 C 116.31 41.86 115.71 42.12 115.31 42.64 C 114.9 43.17 114.7 43.94 114.7 44.98 L 114.7 44.98 Z M 122.53 44.19 C 122.53 42.43 122.79 41.06 123.3 40.08 C 123.82 39.09 124.64 38.48 125.77 38.23 C 127.16 37.94 128.39 37.69 129.46 37.51 L 129.68 38.58 C 127.99 38.86 126.78 39.09 126.05 39.25 C 125.34 39.41 124.81 39.79 124.46 40.39 C 124.1 40.99 123.91 41.81 123.88 42.85 L 123.96 42.85 C 124.27 42.44 124.66 42.12 125.14 41.88 C 125.61 41.65 126.11 41.53 126.64 41.53 C 127.62 41.53 128.39 41.85 128.94 42.49 C 129.5 43.13 129.77 44.01 129.77 45.15 C 129.77 46.4 129.45 47.38 128.81 48.09 C 128.17 48.79 127.28 49.15 126.14 49.15 C 125.01 49.15 124.13 48.71 123.49 47.85 C 122.85 46.99 122.53 45.77 122.53 44.19 L 122.53 44.19 Z M 126.25 48.13 C 127.74 48.13 128.48 47.18 128.48 45.28 C 128.48 43.47 127.81 42.56 126.45 42.56 C 126.08 42.56 125.72 42.64 125.38 42.79 C 125.04 42.95 124.72 43.15 124.44 43.4 C 124.15 43.66 123.93 43.92 123.77 44.19 C 123.77 45.47 123.98 46.45 124.38 47.12 C 124.79 47.79 125.41 48.13 126.25 48.13 L 126.25 48.13 Z M 137 49.15 C 136.19 49.15 135.49 49.01 134.91 48.73 L 134.91 47.65 C 135.21 47.76 135.52 47.86 135.87 47.95 C 136.21 48.04 136.6 48.08 137.04 48.08 C 137.89 48.08 138.55 47.86 139.01 47.4 C 139.47 46.95 139.73 46.27 139.78 45.37 L 135.71 45.37 L 135.71 44.33 L 139.76 44.33 C 139.68 43.49 139.44 42.88 139.03 42.49 C 138.61 42.1 138.01 41.9 137.23 41.9 C 136.72 41.9 136.1 42.03 135.37 42.3 L 135.02 41.27 C 135.29 41.15 135.63 41.04 136.03 40.95 C 136.43 40.87 136.82 40.83 137.21 40.83 C 138.46 40.83 139.41 41.18 140.06 41.9 C 140.71 42.61 141.04 43.65 141.04 44.99 C 141.04 46.31 140.68 47.33 139.98 48.06 C 139.27 48.78 138.28 49.15 137 49.15 L 137 49.15 Z M 148.43 42.01 L 145.83 42.01 L 145.83 49 L 144.61 49 L 144.61 42.01 L 142.03 42.01 L 142.03 40.97 L 148.43 40.97 L 148.43 42.01 Z M 156.81 44.98 C 156.81 46.29 156.48 47.31 155.82 48.04 C 155.16 48.78 154.25 49.15 153.08 49.15 C 152.37 49.15 151.73 48.98 151.17 48.64 C 150.62 48.3 150.19 47.82 149.88 47.19 C 149.58 46.56 149.43 45.82 149.43 44.98 C 149.43 43.67 149.76 42.65 150.41 41.92 C 151.07 41.19 151.97 40.83 153.14 40.83 C 154.26 40.83 155.15 41.2 155.81 41.95 C 156.47 42.69 156.81 43.7 156.81 44.98 L 156.81 44.98 Z M 150.69 44.98 C 150.69 46 150.89 46.79 151.3 47.32 C 151.71 47.86 152.32 48.13 153.11 48.13 C 153.91 48.13 154.51 47.86 154.93 47.33 C 155.34 46.79 155.55 46.01 155.55 44.98 C 155.55 43.96 155.34 43.18 154.93 42.65 C 154.51 42.12 153.9 41.86 153.1 41.86 C 152.3 41.86 151.7 42.12 151.3 42.64 C 150.89 43.17 150.69 43.94 150.69 44.98 L 150.69 44.98 Z M 163.1 47.83 L 163.33 47.15 L 163.65 46.28 L 165.82 40.99 L 167.37 40.99 L 167.37 49 L 166.29 49 L 166.29 42.37 L 166.14 42.8 L 165.72 43.92 L 163.65 49 L 162.63 49 L 160.56 43.9 C 160.3 43.25 160.12 42.74 160.02 42.37 L 160.02 49 L 158.94 49 L 158.94 40.99 L 160.42 40.99 L 162.53 46.08 C 162.74 46.61 162.93 47.2 163.1 47.83 L 163.1 47.83 Z M 169.78 48.22 C 169.78 47.9 169.86 47.65 170.01 47.48 C 170.16 47.31 170.37 47.23 170.65 47.23 C 170.93 47.23 171.15 47.31 171.31 47.48 C 171.47 47.65 171.55 47.9 171.55 48.22 C 171.55 48.54 171.47 48.79 171.31 48.96 C 171.15 49.13 170.93 49.21 170.65 49.21 C 170.4 49.21 170.19 49.14 170.03 48.98 C 169.87 48.83 169.78 48.58 169.78 48.22 L 169.78 48.22 Z M 178.7 49.15 C 178.16 49.15 177.69 49.07 177.28 48.93 L 177.28 47.71 C 177.73 47.92 178.19 48.03 178.66 48.03 C 179.2 48.03 179.63 47.9 179.95 47.66 C 180.28 47.41 180.6 46.95 180.92 46.27 L 176.76 38.29 L 178.13 38.29 L 181.3 44.38 C 181.42 44.62 181.51 44.85 181.58 45.08 L 181.64 45.08 C 181.78 44.67 181.87 44.41 181.93 44.31 L 184.56 38.29 L 185.88 38.29 L 182.45 45.95 C 182.04 46.87 181.67 47.53 181.34 47.95 C 181.02 48.36 180.64 48.66 180.23 48.86 C 179.82 49.05 179.31 49.15 178.7 49.15 L 178.7 49.15 Z M 186.75 44.19 C 186.75 42.43 187.01 41.06 187.52 40.08 C 188.04 39.09 188.86 38.48 189.98 38.23 C 191.38 37.94 192.61 37.69 193.68 37.51 L 193.9 38.58 C 192.21 38.86 191 39.09 190.27 39.25 C 189.56 39.41 189.03 39.79 188.68 40.39 C 188.32 40.99 188.13 41.81 188.09 42.85 L 188.18 42.85 C 188.48 42.44 188.88 42.12 189.35 41.88 C 189.83 41.65 190.33 41.53 190.86 41.53 C 191.84 41.53 192.61 41.85 193.16 42.49 C 193.71 43.13 193.99 44.01 193.99 45.15 C 193.99 46.4 193.67 47.38 193.03 48.09 C 192.39 48.79 191.5 49.15 190.36 49.15 C 189.23 49.15 188.35 48.71 187.71 47.85 C 187.07 46.99 186.75 45.77 186.75 44.19 L 186.75 44.19 Z M 190.47 48.13 C 191.96 48.13 192.7 47.18 192.7 45.28 C 192.7 43.47 192.02 42.56 190.67 42.56 C 190.3 42.56 189.94 42.64 189.6 42.79 C 189.26 42.95 188.94 43.15 188.65 43.4 C 188.37 43.66 188.15 43.92 187.99 44.19 C 187.99 45.47 188.19 46.45 188.6 47.12 C 189 47.79 189.63 48.13 190.47 48.13 L 190.47 48.13 Z M 199.5 49.15 C 198.31 49.15 197.38 48.79 196.69 48.06 C 196 47.34 195.66 46.34 195.66 45.05 C 195.66 43.76 195.98 42.73 196.62 41.97 C 197.25 41.21 198.11 40.83 199.18 40.83 C 200.19 40.83 200.98 41.16 201.57 41.82 C 202.16 42.48 202.45 43.35 202.45 44.44 L 202.45 45.21 L 196.92 45.21 C 196.94 46.15 197.18 46.86 197.63 47.35 C 198.09 47.84 198.72 48.08 199.54 48.08 C 200.41 48.08 201.26 47.9 202.11 47.54 L 202.11 48.63 C 201.68 48.81 201.27 48.95 200.89 49.03 C 200.5 49.11 200.04 49.15 199.5 49.15 L 199.5 49.15 Z M 199.17 41.84 C 198.52 41.84 198.01 42.05 197.63 42.47 C 197.24 42.89 197.02 43.48 196.95 44.22 L 201.15 44.22 C 201.15 43.45 200.98 42.86 200.63 42.46 C 200.29 42.05 199.8 41.84 199.17 41.84 L 199.17 41.84 Z M 211.5 51.78 L 210.32 51.78 L 210.32 49 L 204.71 49 L 204.71 51.78 L 203.53 51.78 L 203.53 47.95 L 204.16 47.95 C 204.82 47.06 205.33 46.02 205.7 44.83 C 206.07 43.63 206.27 42.34 206.28 40.97 L 210.35 40.97 L 210.35 47.95 L 211.5 47.95 L 211.5 51.78 Z M 209.17 47.95 L 209.17 41.93 L 207.37 41.93 C 207.31 43.02 207.1 44.11 206.75 45.22 C 206.39 46.34 205.95 47.24 205.42 47.95 L 209.17 47.95 Z M 214.24 40.97 L 214.24 46.06 L 214.19 47.4 L 214.17 47.81 L 218.51 40.97 L 220.03 40.97 L 220.03 49 L 218.89 49 L 218.89 44.09 L 218.91 43.13 L 218.95 42.17 L 214.62 49 L 213.1 49 L 213.1 40.97 L 214.24 40.97 Z M 228.02 42.01 L 225.41 42.01 L 225.41 49 L 224.2 49 L 224.2 42.01 L 221.62 42.01 L 221.62 40.97 L 228.02 40.97 L 228.02 42.01 Z M 232.85 49.15 C 231.67 49.15 230.73 48.79 230.04 48.06 C 229.36 47.34 229.01 46.34 229.01 45.05 C 229.01 43.76 229.33 42.73 229.97 41.97 C 230.61 41.21 231.46 40.83 232.54 40.83 C 233.54 40.83 234.34 41.16 234.93 41.82 C 235.51 42.48 235.8 43.35 235.8 44.44 L 235.8 45.21 L 230.27 45.21 C 230.3 46.15 230.54 46.86 230.99 47.35 C 231.44 47.84 232.08 48.08 232.9 48.08 C 233.76 48.08 234.62 47.9 235.46 47.54 L 235.46 48.63 C 235.03 48.81 234.62 48.95 234.24 49.03 C 233.86 49.11 233.39 49.15 232.85 49.15 L 232.85 49.15 Z M 232.52 41.84 C 231.88 41.84 231.36 42.05 230.98 42.47 C 230.6 42.89 230.37 43.48 230.3 44.22 L 234.5 44.22 C 234.5 43.45 234.33 42.86 233.99 42.46 C 233.65 42.05 233.16 41.84 232.52 41.84 L 232.52 41.84 Z M 241.08 49.15 C 239.92 49.15 239.02 48.79 238.39 48.07 C 237.75 47.36 237.43 46.35 237.43 45.04 C 237.43 43.69 237.75 42.66 238.4 41.92 C 239.05 41.19 239.97 40.83 241.17 40.83 C 241.55 40.83 241.94 40.87 242.32 40.95 C 242.71 41.03 243.01 41.13 243.23 41.24 L 242.86 42.28 C 242.59 42.17 242.3 42.08 241.98 42.01 C 241.66 41.94 241.38 41.9 241.14 41.9 C 239.51 41.9 238.69 42.94 238.69 45.02 C 238.69 46.01 238.89 46.77 239.29 47.29 C 239.68 47.82 240.27 48.08 241.06 48.08 C 241.72 48.08 242.41 47.94 243.11 47.65 L 243.11 48.73 C 242.58 49.01 241.9 49.15 241.08 49.15 L 241.08 49.15 Z M 246.23 44.29 L 248.71 44.29 C 250.76 44.29 251.79 45.04 251.79 46.55 C 251.79 47.34 251.52 47.95 250.98 48.37 C 250.45 48.79 249.67 49 248.64 49 L 245.02 49 L 245.02 40.97 L 246.23 40.97 L 246.23 44.29 Z M 246.23 45.34 L 246.23 47.98 L 248.58 47.98 C 249.22 47.98 249.72 47.87 250.06 47.65 C 250.4 47.42 250.57 47.08 250.57 46.63 C 250.57 46.18 250.41 45.86 250.1 45.65 C 249.78 45.44 249.26 45.34 248.54 45.34 L 246.23 45.34 Z M 258.86 40.97 L 258.86 43.9 C 258.86 44.84 259.4 45.31 260.46 45.31 C 260.91 45.31 261.33 45.24 261.74 45.1 C 262.14 44.97 262.6 44.73 263.12 44.41 L 263.12 40.97 L 264.33 40.97 L 264.33 49 L 263.12 49 L 263.12 45.37 C 262.6 45.72 262.13 45.97 261.69 46.11 C 261.25 46.25 260.76 46.33 260.21 46.33 C 259.41 46.33 258.78 46.12 258.33 45.7 C 257.87 45.28 257.65 44.71 257.65 43.99 L 257.65 40.97 L 258.86 40.97 Z M 272.32 42.01 L 269.72 42.01 L 269.72 49 L 268.5 49 L 268.5 42.01 L 265.92 42.01 L 265.92 40.97 L 272.32 40.97 L 272.32 42.01 Z M 280.69 44.98 C 280.69 46.29 280.36 47.31 279.71 48.04 C 279.05 48.78 278.14 49.15 276.97 49.15 C 276.26 49.15 275.62 48.98 275.06 48.64 C 274.51 48.3 274.08 47.82 273.77 47.19 C 273.47 46.56 273.32 45.82 273.32 44.98 C 273.32 43.67 273.65 42.65 274.3 41.92 C 274.95 41.19 275.86 40.83 277.02 40.83 C 278.15 40.83 279.04 41.2 279.7 41.95 C 280.36 42.69 280.69 43.7 280.69 44.98 L 280.69 44.98 Z M 274.58 44.98 C 274.58 46 274.78 46.79 275.19 47.32 C 275.6 47.86 276.21 48.13 277 48.13 C 277.8 48.13 278.4 47.86 278.82 47.33 C 279.23 46.79 279.43 46.01 279.43 44.98 C 279.43 43.96 279.23 43.18 278.82 42.65 C 278.4 42.12 277.79 41.86 276.99 41.86 C 276.19 41.86 275.59 42.12 275.19 42.64 C 274.78 43.17 274.58 43.94 274.58 44.98 L 274.58 44.98 Z M 293.23 42.99 C 293.23 43.51 293.08 43.91 292.78 44.18 C 292.48 44.45 292.06 44.63 291.52 44.72 L 291.52 44.79 C 292.2 44.88 292.7 45.08 293.02 45.39 C 293.33 45.7 293.49 46.12 293.49 46.66 C 293.49 47.41 293.22 47.99 292.67 48.39 C 292.12 48.8 291.31 49 290.26 49 L 286.72 49 L 286.72 40.97 L 290.25 40.97 C 292.24 40.97 293.23 41.64 293.23 42.99 L 293.23 42.99 Z M 292.27 46.58 C 292.27 46.15 292.11 45.83 291.78 45.63 C 291.45 45.44 290.9 45.34 290.14 45.34 L 287.94 45.34 L 287.94 47.98 L 290.17 47.98 C 291.57 47.98 292.27 47.52 292.27 46.58 L 292.27 46.58 Z M 292.05 43.1 C 292.05 42.71 291.9 42.44 291.6 42.27 C 291.3 42.11 290.84 42.03 290.23 42.03 L 287.94 42.03 L 287.94 44.29 L 290 44.29 C 290.75 44.29 291.28 44.2 291.59 44.01 C 291.89 43.83 292.05 43.52 292.05 43.1 L 292.05 43.1 Z M 296.47 44.29 L 298.66 44.29 C 299.68 44.29 300.44 44.48 300.93 44.86 C 301.42 45.24 301.66 45.8 301.66 46.55 C 301.66 47.36 301.4 47.97 300.88 48.38 C 300.36 48.79 299.6 49 298.59 49 L 295.25 49 L 295.25 40.97 L 296.47 40.97 L 296.47 44.29 Z M 304.23 49 L 303.01 49 L 303.01 40.97 L 304.23 40.97 L 304.23 49 Z M 296.47 45.34 L 296.47 47.98 L 298.53 47.98 C 299.82 47.98 300.46 47.53 300.46 46.63 C 300.46 46.18 300.31 45.85 300.02 45.65 C 299.72 45.44 299.21 45.34 298.49 45.34 L 296.47 45.34 Z M 311.92 49 L 310.7 49 L 310.7 40.97 L 317.44 40.97 L 317.44 49 L 316.21 49 L 316.21 42.03 L 311.92 42.03 L 311.92 49 Z M 323.75 49.15 C 323.23 49.15 322.75 49.05 322.32 48.86 C 321.89 48.66 321.53 48.37 321.23 47.97 L 321.15 47.97 C 321.2 48.44 321.23 48.88 321.23 49.3 L 321.23 52.6 L 320.02 52.6 L 320.02 40.97 L 321.01 40.97 L 321.18 42.07 L 321.23 42.07 C 321.55 41.63 321.91 41.31 322.33 41.12 C 322.74 40.92 323.22 40.83 323.75 40.83 C 324.82 40.83 325.64 41.19 326.22 41.92 C 326.8 42.65 327.09 43.67 327.09 44.98 C 327.09 46.3 326.79 47.32 326.2 48.05 C 325.61 48.78 324.8 49.15 323.75 49.15 L 323.75 49.15 Z M 323.58 41.86 C 322.76 41.86 322.16 42.09 321.8 42.54 C 321.43 42.99 321.24 43.72 321.23 44.71 L 321.23 44.98 C 321.23 46.11 321.42 46.91 321.8 47.4 C 322.17 47.89 322.78 48.13 323.61 48.13 C 324.3 48.13 324.84 47.85 325.24 47.29 C 325.63 46.72 325.83 45.95 325.83 44.96 C 325.83 43.96 325.63 43.2 325.24 42.66 C 324.84 42.13 324.29 41.86 323.58 41.86 L 323.58 41.86 Z M 334.15 49 L 333.9 47.86 L 333.85 47.86 C 333.45 48.36 333.05 48.7 332.65 48.88 C 332.25 49.06 331.75 49.15 331.16 49.15 C 330.36 49.15 329.74 48.94 329.29 48.53 C 328.84 48.12 328.61 47.54 328.61 46.78 C 328.61 45.16 329.91 44.31 332.5 44.23 L 333.86 44.19 L 333.86 43.69 C 333.86 43.06 333.73 42.59 333.45 42.29 C 333.18 41.99 332.75 41.84 332.15 41.84 C 331.49 41.84 330.73 42.05 329.88 42.46 L 329.51 41.53 C 329.91 41.31 330.34 41.15 330.81 41.02 C 331.28 40.9 331.75 40.84 332.23 40.84 C 333.18 40.84 333.89 41.05 334.36 41.48 C 334.82 41.9 335.05 42.58 335.05 43.52 L 335.05 49 L 334.15 49 Z M 331.4 48.14 C 332.16 48.14 332.75 47.94 333.18 47.52 C 333.62 47.11 333.83 46.52 333.83 45.78 L 333.83 45.05 L 332.62 45.1 C 331.65 45.14 330.95 45.29 330.52 45.55 C 330.1 45.82 329.88 46.23 329.88 46.8 C 329.88 47.23 330.02 47.57 330.28 47.8 C 330.55 48.03 330.92 48.14 331.4 48.14 L 331.4 48.14 Z M 344.06 42.99 C 344.06 43.51 343.91 43.91 343.61 44.18 C 343.31 44.45 342.89 44.63 342.35 44.72 L 342.35 44.79 C 343.03 44.88 343.53 45.08 343.85 45.39 C 344.16 45.7 344.32 46.12 344.32 46.66 C 344.32 47.41 344.05 47.99 343.5 48.39 C 342.95 48.8 342.14 49 341.09 49 L 337.55 49 L 337.55 40.97 L 341.08 40.97 C 343.07 40.97 344.06 41.64 344.06 42.99 L 344.06 42.99 Z M 343.1 46.58 C 343.1 46.15 342.94 45.83 342.61 45.63 C 342.28 45.44 341.73 45.34 340.97 45.34 L 338.77 45.34 L 338.77 47.98 L 341 47.98 C 342.4 47.98 343.1 47.52 343.1 46.58 L 343.1 46.58 Z M 342.88 43.1 C 342.88 42.71 342.73 42.44 342.43 42.27 C 342.13 42.11 341.67 42.03 341.06 42.03 L 338.77 42.03 L 338.77 44.29 L 340.83 44.29 C 341.58 44.29 342.11 44.2 342.42 44.01 C 342.72 43.83 342.88 43.52 342.88 43.1 L 342.88 43.1 Z M 347.23 40.97 L 347.23 46.06 L 347.18 47.4 L 347.15 47.81 L 351.5 40.97 L 353.01 40.97 L 353.01 49 L 351.88 49 L 351.88 44.09 L 351.9 43.13 L 351.94 42.17 L 347.6 49 L 346.08 49 L 346.08 40.97 L 347.23 40.97 Z M 361.58 49 L 360.35 49 L 360.35 42.01 L 357.94 42.01 C 357.8 43.75 357.62 45.13 357.39 46.15 C 357.15 47.17 356.85 47.92 356.47 48.39 C 356.1 48.87 355.63 49.1 355.05 49.1 C 354.79 49.1 354.58 49.07 354.42 49.01 L 354.42 48.11 C 354.53 48.14 354.65 48.16 354.79 48.16 C 355.35 48.16 355.79 47.56 356.13 46.38 C 356.46 45.19 356.71 43.39 356.88 40.97 L 361.58 40.97 L 361.58 49 Z M 365.37 44.29 L 367.85 44.29 C 369.9 44.29 370.92 45.04 370.92 46.55 C 370.92 47.34 370.65 47.95 370.12 48.37 C 369.58 48.79 368.8 49 367.77 49 L 364.15 49 L 364.15 40.97 L 365.37 40.97 L 365.37 44.29 Z M 365.37 45.34 L 365.37 47.98 L 367.71 47.98 C 368.36 47.98 368.85 47.87 369.19 47.65 C 369.53 47.42 369.71 47.08 369.71 46.63 C 369.71 46.18 369.55 45.86 369.23 45.65 C 368.92 45.44 368.4 45.34 367.68 45.34 L 365.37 45.34 Z M 374.25 40.97 L 374.25 44.33 L 378.74 44.33 L 378.74 40.97 L 379.96 40.97 L 379.96 49 L 378.74 49 L 378.74 45.38 L 374.25 45.38 L 374.25 49 L 373.03 49 L 373.03 40.97 L 374.25 40.97 Z M 389.47 44.98 C 389.47 46.29 389.14 47.31 388.48 48.04 C 387.82 48.78 386.91 49.15 385.75 49.15 C 385.03 49.15 384.39 48.98 383.83 48.64 C 383.28 48.3 382.85 47.82 382.54 47.19 C 382.24 46.56 382.09 45.82 382.09 44.98 C 382.09 43.67 382.42 42.65 383.07 41.92 C 383.73 41.19 384.63 40.83 385.8 40.83 C 386.92 40.83 387.81 41.2 388.47 41.95 C 389.14 42.69 389.47 43.7 389.47 44.98 L 389.47 44.98 Z M 383.35 44.98 C 383.35 46 383.56 46.79 383.97 47.32 C 384.38 47.86 384.98 48.13 385.77 48.13 C 386.57 48.13 387.18 47.86 387.59 47.33 C 388 46.79 388.21 46.01 388.21 44.98 C 388.21 43.96 388 43.18 387.59 42.65 C 387.18 42.12 386.57 41.86 385.76 41.86 C 384.96 41.86 384.36 42.12 383.96 42.64 C 383.55 43.17 383.35 43.94 383.35 44.98 L 383.35 44.98 Z M 402.01 42.99 C 402.01 43.51 401.86 43.91 401.55 44.18 C 401.25 44.45 400.83 44.63 400.29 44.72 L 400.29 44.79 C 400.98 44.88 401.47 45.08 401.79 45.39 C 402.1 45.7 402.26 46.12 402.26 46.66 C 402.26 47.41 401.99 47.99 401.44 48.39 C 400.89 48.8 400.09 49 399.03 49 L 395.49 49 L 395.49 40.97 L 399.02 40.97 C 401.01 40.97 402.01 41.64 402.01 42.99 L 402.01 42.99 Z M 401.05 46.58 C 401.05 46.15 400.88 45.83 400.55 45.63 C 400.22 45.44 399.68 45.34 398.91 45.34 L 396.71 45.34 L 396.71 47.98 L 398.94 47.98 C 400.35 47.98 401.05 47.52 401.05 46.58 L 401.05 46.58 Z M 400.82 43.1 C 400.82 42.71 400.67 42.44 400.37 42.27 C 400.07 42.11 399.61 42.03 399 42.03 L 396.71 42.03 L 396.71 44.29 L 398.77 44.29 C 399.52 44.29 400.05 44.2 400.36 44.01 C 400.67 43.83 400.82 43.52 400.82 43.1 L 400.82 43.1 Z M 410.54 42.99 C 410.54 43.51 410.39 43.91 410.09 44.18 C 409.79 44.45 409.37 44.63 408.82 44.72 L 408.82 44.79 C 409.51 44.88 410.01 45.08 410.32 45.39 C 410.64 45.7 410.79 46.12 410.79 46.66 C 410.79 47.41 410.52 47.99 409.97 48.39 C 409.42 48.8 408.62 49 407.56 49 L 404.03 49 L 404.03 40.97 L 407.55 40.97 C 409.54 40.97 410.54 41.64 410.54 42.99 L 410.54 42.99 Z M 409.58 46.58 C 409.58 46.15 409.41 45.83 409.08 45.63 C 408.75 45.44 408.21 45.34 407.45 45.34 L 405.24 45.34 L 405.24 47.98 L 407.48 47.98 C 408.88 47.98 409.58 47.52 409.58 46.58 L 409.58 46.58 Z M 409.35 43.1 C 409.35 42.71 409.2 42.44 408.9 42.27 C 408.6 42.11 408.15 42.03 407.54 42.03 L 405.24 42.03 L 405.24 44.29 L 407.3 44.29 C 408.05 44.29 408.58 44.2 408.89 44.01 C 409.2 43.83 409.35 43.52 409.35 43.1 L 409.35 43.1 Z M 415.95 49.15 C 414.76 49.15 413.83 48.79 413.14 48.06 C 412.46 47.34 412.11 46.34 412.11 45.05 C 412.11 43.76 412.43 42.73 413.07 41.97 C 413.71 41.21 414.56 40.83 415.64 40.83 C 416.64 40.83 417.44 41.16 418.02 41.82 C 418.61 42.48 418.9 43.35 418.9 44.44 L 418.9 45.21 L 413.37 45.21 C 413.4 46.15 413.64 46.86 414.09 47.35 C 414.54 47.84 415.17 48.08 415.99 48.08 C 416.86 48.08 417.71 47.9 418.56 47.54 L 418.56 48.63 C 418.13 48.81 417.72 48.95 417.34 49.03 C 416.96 49.11 416.49 49.15 415.95 49.15 L 415.95 49.15 Z M 415.62 41.84 C 414.98 41.84 414.46 42.05 414.08 42.47 C 413.7 42.89 413.47 43.48 413.4 44.22 L 417.6 44.22 C 417.6 43.45 417.43 42.86 417.09 42.46 C 416.74 42.05 416.26 41.84 415.62 41.84 L 415.62 41.84 Z M 426.96 49 L 425.73 49 L 425.73 42.01 L 423.32 42.01 C 423.19 43.75 423 45.13 422.77 46.15 C 422.54 47.17 422.23 47.92 421.86 48.39 C 421.48 48.87 421.01 49.1 420.43 49.1 C 420.17 49.1 419.96 49.07 419.8 49.01 L 419.8 48.11 C 419.91 48.14 420.03 48.16 420.17 48.16 C 420.73 48.16 421.18 47.56 421.51 46.38 C 421.84 45.19 422.09 43.39 422.26 40.97 L 426.96 40.97 L 426.96 49 Z M 430.68 40.97 L 430.68 46.06 L 430.63 47.4 L 430.61 47.81 L 434.95 40.97 L 436.47 40.97 L 436.47 49 L 435.33 49 L 435.33 44.09 L 435.35 43.13 L 435.39 42.17 L 431.05 49 L 429.54 49 L 429.54 40.97 L 430.68 40.97 Z M 447.88 49 L 447.64 47.86 L 447.58 47.86 C 447.18 48.36 446.78 48.7 446.38 48.88 C 445.98 49.06 445.48 49.15 444.89 49.15 C 444.09 49.15 443.47 48.94 443.02 48.53 C 442.57 48.12 442.34 47.54 442.34 46.78 C 442.34 45.16 443.64 44.31 446.23 44.23 L 447.59 44.19 L 447.59 43.69 C 447.59 43.06 447.46 42.59 447.18 42.29 C 446.91 41.99 446.48 41.84 445.88 41.84 C 445.22 41.84 444.46 42.05 443.61 42.46 L 443.24 41.53 C 443.64 41.31 444.07 41.15 444.54 41.02 C 445.01 40.9 445.48 40.84 445.96 40.84 C 446.92 40.84 447.62 41.05 448.09 41.48 C 448.55 41.9 448.78 42.58 448.78 43.52 L 448.78 49 L 447.88 49 Z M 445.13 48.14 C 445.89 48.14 446.48 47.94 446.91 47.52 C 447.35 47.11 447.56 46.52 447.56 45.78 L 447.56 45.05 L 446.35 45.1 C 445.38 45.14 444.68 45.29 444.26 45.55 C 443.83 45.82 443.61 46.23 443.61 46.8 C 443.61 47.23 443.75 47.57 444.01 47.8 C 444.28 48.03 444.65 48.14 445.13 48.14 L 445.13 48.14 Z M 458.26 51.78 L 457.08 51.78 L 457.08 49 L 451.47 49 L 451.47 51.78 L 450.29 51.78 L 450.29 47.95 L 450.92 47.95 C 451.58 47.06 452.09 46.02 452.46 44.83 C 452.83 43.63 453.03 42.34 453.04 40.97 L 457.11 40.97 L 457.11 47.95 L 458.26 47.95 L 458.26 51.78 Z M 455.93 47.95 L 455.93 41.93 L 454.13 41.93 C 454.07 43.02 453.86 44.11 453.51 45.22 C 453.15 46.34 452.71 47.24 452.18 47.95 L 455.93 47.95 Z M 463.59 49.15 C 463.07 49.15 462.59 49.05 462.16 48.86 C 461.73 48.66 461.37 48.37 461.08 47.97 L 460.99 47.97 C 461.05 48.44 461.08 48.88 461.08 49.3 L 461.08 52.6 L 459.86 52.6 L 459.86 40.97 L 460.85 40.97 L 461.02 42.07 L 461.08 42.07 C 461.39 41.63 461.75 41.31 462.17 41.12 C 462.58 40.92 463.06 40.83 463.59 40.83 C 464.66 40.83 465.48 41.19 466.06 41.92 C 466.64 42.65 466.93 43.67 466.93 44.98 C 466.93 46.3 466.63 47.32 466.04 48.05 C 465.46 48.78 464.64 49.15 463.59 49.15 L 463.59 49.15 Z M 463.42 41.86 C 462.6 41.86 462.01 42.09 461.64 42.54 C 461.27 42.99 461.08 43.72 461.08 44.71 L 461.08 44.98 C 461.08 46.11 461.26 46.91 461.64 47.4 C 462.02 47.89 462.62 48.13 463.45 48.13 C 464.14 48.13 464.68 47.85 465.08 47.29 C 465.47 46.72 465.67 45.95 465.67 44.96 C 465.67 43.96 465.47 43.2 465.08 42.66 C 464.68 42.13 464.13 41.86 463.42 41.86 L 463.42 41.86 Z M 472.44 49.15 C 471.26 49.15 470.32 48.79 469.63 48.06 C 468.95 47.34 468.6 46.34 468.6 45.05 C 468.6 43.76 468.92 42.73 469.56 41.97 C 470.2 41.21 471.05 40.83 472.13 40.83 C 473.13 40.83 473.93 41.16 474.52 41.82 C 475.1 42.48 475.39 43.35 475.39 44.44 L 475.39 45.21 L 469.86 45.21 C 469.89 46.15 470.13 46.86 470.58 47.35 C 471.03 47.84 471.67 48.08 472.49 48.08 C 473.35 48.08 474.21 47.9 475.05 47.54 L 475.05 48.63 C 474.62 48.81 474.21 48.95 473.83 49.03 C 473.45 49.11 472.98 49.15 472.44 49.15 L 472.44 49.15 Z M 472.11 41.84 C 471.47 41.84 470.95 42.05 470.57 42.47 C 470.19 42.89 469.96 43.48 469.89 44.22 L 474.09 44.22 C 474.09 43.45 473.92 42.86 473.58 42.46 C 473.24 42.05 472.75 41.84 472.11 41.84 L 472.11 41.84 Z M 480.67 49.15 C 479.51 49.15 478.61 48.79 477.98 48.07 C 477.34 47.36 477.02 46.35 477.02 45.04 C 477.02 43.69 477.34 42.66 477.99 41.92 C 478.64 41.19 479.56 40.83 480.76 40.83 C 481.14 40.83 481.53 40.87 481.91 40.95 C 482.3 41.03 482.6 41.13 482.82 41.24 L 482.45 42.28 C 482.18 42.17 481.89 42.08 481.57 42.01 C 481.25 41.94 480.97 41.9 480.73 41.9 C 479.1 41.9 478.28 42.94 478.28 45.02 C 478.28 46.01 478.48 46.77 478.88 47.29 C 479.27 47.82 479.86 48.08 480.65 48.08 C 481.31 48.08 482 47.94 482.7 47.65 L 482.7 48.73 C 482.17 49.01 481.49 49.15 480.67 49.15 L 480.67 49.15 Z M 480.67 49.15" />
</svg>