<?xml version="1.0" encoding="utf-8"?>
<!-- Generator: Avocode 2.3.2-ea60620 - http://avocode.com -->
<svg height="29" width="29" xmlns:xlink="http://www.w3.org/1999/xlink" xmlns="http://www.w3.org/2000/svg" viewBox="0 0 29 29">
    <path fill="#3b5b98" fill-rule="evenodd" d="M 0 0.58 L 28.42 0.58 L 28.42 29 L 0 29 L 0 0.58 Z M 0 0.58" />
    <path fill="#ffffff" fill-rule="evenodd" d="M 17.84 14.79 L 15.47 14.79 L 15.47 23.16 L 12 23.16 L 12 14.79 L 10.34 14.79 L 10.34 11.87 L 12 11.87 L 12 9.97 C 12 8.63 12.71 6.5 15.47 6.5 L 18.08 6.5 L 18.08 9.26 L 16.18 9.26 C 15.87 9.26 15.39 9.34 15.39 10.05 L 15.39 11.71 L 18 11.71 L 17.84 14.79 L 17.84 14.79 Z M 17.84 14.79" />
</svg>