<?xml version="1.0" encoding="utf-8"?>
<!-- Generator: Avocode 2.3.2-ea60620 - http://avocode.com -->
<svg height="26" width="26" xmlns:xlink="http://www.w3.org/1999/xlink" xmlns="http://www.w3.org/2000/svg" viewBox="0 0 26 26">
    <path stroke-linejoin="miter" stroke-linecap="butt" stroke-width="1" stroke="#ffffff" fill="none" fill-rule="evenodd" d="M 13 25 C 19.63 25 25 19.63 25 13 C 25 6.37 19.63 1 13 1 C 6.37 1 1 6.37 1 13 C 1 19.63 6.37 25 13 25 Z M 13 25" />
    <path fill="#ffffff" fill-rule="evenodd" d="M 16.2 13 L 14.1 13 L 14.1 20.4 L 11 20.4 L 11 13 L 9.5 13 L 9.5 10.4 L 11 10.4 L 11 8.7 C 11 7.5 11.6 5.6 14.1 5.6 L 16.4 5.6 L 16.4 8.1 L 14.7 8.1 C 14.4 8.1 14 8.2 14 8.8 L 14 10.3 L 16.3 10.3 L 16.2 13 L 16.2 13 Z M 16.2 13" />
</svg>