<!-- Generator: Avocode 2.2.1-ae398a7 - http://avocode.com -->
<svg height="19" width="31" xmlns:xlink="http://www.w3.org/1999/xlink" xmlns="http://www.w3.org/2000/svg" viewBox="0 0 31 19">
    <path fill="#0083cd" fill-rule="evenodd" d="M 27.25 12.01 L 26.24 12.65 L 25.48 12.39 L 25.98 9.73 C 25.98 9.73 27.63 8.47 27.63 8.21 C 27.63 7.96 26.74 6.31 26.74 6.31 L 27.63 5.3 L 28.52 7.83 L 30.8 9.73 L 29.53 6.94 L 28.52 6.31 L 28.52 4.79 L 28.52 2.38 L 27.5 2.63 L 27.5 1.62 L 28.39 0.86 L 27.76 0.1 L 25.1 2.25 L 25.35 3.4 L 23.96 4.28 L 21.67 5.42 L 21.55 6.31 L 20.03 6.69 L 19.27 6.56 L 18 6.82 L 17.36 5.55 L 15.08 6.56 L 12.8 8.47 L 12.29 7.2 L 10.39 8.59 L 7.1 8.09 L 5.32 8.34 L 5.7 7.2 L 6.59 7.83 L 7.22 7.32 L 6.21 5.55 L 3.55 8.09 L 1.27 9.48 L 1.39 13.41 C 1.39 13.41 0 14.68 0 14.93 C 0 15.18 1.27 17.84 1.27 17.84 L 2.28 16.45 L 3.93 14.68 L 7.48 16.32 L 8.37 15.06 L 10.77 15.44 L 14.32 18.48 L 17.11 17.84 L 17.74 17.21 L 22.94 17.08 L 23.32 15.44 L 24.46 14.42 L 25.35 15.56 L 27.5 15.31 L 27.88 17.84 L 28.9 16.83 L 28.65 13.54 L 27.25 12.01 L 27.25 12.01 Z M 10.01 6.82 L 11.28 5.8 L 12.55 5.68 L 12.55 5.17 L 10.77 5.42 L 9.51 6.69 L 9.51 7.45 L 10.01 7.58 L 10.01 6.82 L 10.01 6.82 Z M 29.41 12.52 L 29.66 12.14 L 27.76 10.75 L 27.76 11.25 L 30.17 13.79 L 30.42 13.28 L 29.79 13.03 L 29.41 12.52 L 29.41 12.52 Z M 29.41 12.52" />
</svg>