<?xml version="1.0" encoding="utf-8"?>
<!-- Generator: Avocode 2.3.2-ea60620 - http://avocode.com -->
<svg height="30" width="30" xmlns:xlink="http://www.w3.org/1999/xlink" xmlns="http://www.w3.org/2000/svg" viewBox="0 0 30 30">
    <path fill="#d6492e" fill-rule="evenodd" d="M 0.84 0.95 L 29.26 0.95 L 29.26 29.37 L 0.84 29.37 L 0.84 0.95 Z M 0.84 0.95" />
    <path fill="#ffffff" fill-rule="evenodd" d="M 16.51 7.89 L 12.12 7.89 C 11.63 7.89 11.22 7.97 10.74 8.13 C 9.19 8.6 8.05 9.92 8.05 11.25 C 8.05 13.12 9.6 14.6 11.63 14.6 C 11.55 14.68 11.55 14.91 11.55 15.07 C 11.55 15.3 11.63 15.62 11.79 15.85 C 9.84 15.85 8.05 16.71 7.4 18.11 C 7.32 18.58 7.16 18.89 7.16 19.2 C 7.16 19.52 7.16 19.91 7.4 20.22 C 7.89 20.92 8.78 21.47 9.92 21.78 C 10.49 21.86 11.22 22.01 11.88 22.01 C 12.45 22.01 13.01 21.93 13.58 21.78 C 15.29 21.31 16.51 20.14 16.51 18.74 C 16.51 17.33 16.02 16.47 14.89 15.69 C 14.32 15.38 13.83 14.84 13.83 14.68 C 13.83 14.45 13.83 14.37 14.56 13.82 C 15.45 13.12 15.94 12.26 15.94 11.4 C 15.94 10.55 15.7 9.84 15.21 9.3 L 15.54 9.3 C 15.62 9.3 15.62 9.22 15.78 9.22 L 16.67 8.52 C 16.76 8.52 16.76 8.28 16.76 8.21 C 16.76 8.05 16.59 7.89 16.51 7.89 L 16.51 7.89 Z M 10.25 11.17 C 10.17 10.47 10.25 9.84 10.74 9.38 C 10.98 9.14 11.31 9.06 11.63 9.06 C 12.69 9.14 13.58 10.16 13.75 11.4 C 13.83 12.18 13.67 12.73 13.26 13.2 C 13.01 13.43 12.69 13.51 12.36 13.51 C 11.31 13.51 10.33 12.42 10.25 11.17 L 10.25 11.17 Z M 14.64 18.5 L 14.64 18.81 C 14.64 20.06 13.75 20.69 11.88 20.69 C 10.49 20.69 9.35 19.91 9.35 18.81 C 9.35 17.8 10.66 16.94 12.12 16.94 C 12.45 16.94 12.69 16.94 13.01 17.02 C 13.1 17.1 13.26 17.1 13.34 17.25 C 14.07 17.72 14.56 17.96 14.64 18.5 L 14.64 18.5 Z M 14.64 18.5" />
    <path fill="#ffffff" fill-rule="evenodd" d="M 22.86 15.33 C 22.86 15.58 22.78 15.66 22.54 15.66 L 20.07 15.66 L 20.07 18.15 C 20.07 18.4 19.99 18.48 19.74 18.48 L 19 18.48 C 18.76 18.48 18.68 18.4 18.68 18.15 L 18.68 15.66 L 16.21 15.66 C 15.97 15.66 15.88 15.58 15.88 15.33 L 15.88 14.66 C 15.88 14.41 15.97 14.33 16.21 14.33 L 18.68 14.33 L 18.68 11.76 C 18.68 11.51 18.76 11.42 19 11.42 L 19.74 11.42 C 19.99 11.42 20.07 11.51 20.07 11.76 L 20.07 14.25 L 22.54 14.25 C 22.78 14.25 22.86 14.33 22.86 14.58 L 22.86 15.33 L 22.86 15.33 Z M 22.86 15.33" />
</svg>