<?xml version="1.0" encoding="utf-8"?>
<!-- Generator: Avocode 2.3.2-ea60620 - http://avocode.com -->
<svg height="26" width="26" xmlns:xlink="http://www.w3.org/1999/xlink" xmlns="http://www.w3.org/2000/svg" viewBox="0 0 26 26">
    <path stroke-linejoin="miter" stroke-linecap="butt" stroke-width="1" stroke="#ffffff" fill="none" fill-rule="evenodd" d="M 13 25 C 19.63 25 25 19.63 25 13 C 25 6.37 19.63 1 13 1 C 6.37 1 1 6.37 1 13 C 1 19.63 6.37 25 13 25 Z M 13 25" />
    <path fill="#ffffff" fill-rule="evenodd" d="M 13.7 8.2 L 14.5 7.6 C 14.6 7.5 14.7 7.4 14.6 7.3 C 14.6 7.2 14.4 7.1 14.3 7.1 L 10.5 7.1 C 10.1 7.1 9.7 7.2 9.3 7.3 C 8 7.7 7 8.9 7 10.1 C 7 11.8 8.3 13.1 10.1 13.1 C 10.1 13.2 10 13.4 10 13.5 C 10 13.8 10.1 14 10.2 14.2 L 10.2 14.2 C 8.5 14.2 7 15 6.4 16.2 C 6.2 16.5 6.2 16.8 6.2 17.2 C 6.2 17.5 6.3 17.8 6.4 18.1 C 6.8 18.7 7.5 19.2 8.6 19.5 C 9.1 19.6 9.7 19.7 10.3 19.7 C 10.8 19.7 11.4 19.6 11.8 19.5 C 13.3 19.1 14.3 18 14.3 16.7 C 14.3 15.5 13.9 14.8 12.9 14 C 12.5 13.7 12 13.2 12 13.1 C 12 12.8 12 12.7 12.6 12.3 C 13.4 11.7 13.8 10.9 13.8 10.1 C 13.8 9.4 13.6 8.7 13.2 8.2 L 13.5 8.2 L 13.7 8.2 L 13.7 8.2 Z M 9 10 C 8.9 9.4 9 8.8 9.4 8.5 C 9.6 8.3 9.9 8.2 10.2 8.2 L 10.2 8.2 C 11 8.2 11.8 9.2 12 10.3 C 12.1 10.9 11.9 11.5 11.6 11.9 C 11.4 12.1 11.1 12.2 10.8 12.2 L 10.8 12.2 C 9.9 12.1 9.1 11.1 9 10 L 9 10 Z M 12.8 16.6 L 12.8 16.9 C 12.8 18 12 18.6 10.4 18.6 C 9.2 18.6 8.2 17.8 8.2 16.9 C 8.2 16 9.3 15.2 10.6 15.2 L 10.6 15.2 C 10.9 15.2 11.1 15.2 11.4 15.3 C 11.5 15.4 11.6 15.4 11.7 15.5 C 12.3 15.9 12.7 16.1 12.8 16.6 L 12.8 16.6 Z M 12.8 16.6" />
    <path fill="#ffffff" fill-rule="evenodd" d="M 20.4 13.1 C 20.4 13.3 20.3 13.4 20.1 13.4 L 18 13.4 L 18 15.5 C 18 15.7 17.9 15.8 17.7 15.8 L 17.1 15.8 C 16.9 15.8 16.8 15.7 16.8 15.5 L 16.8 13.4 L 14.7 13.4 C 14.5 13.4 14.4 13.3 14.4 13.1 L 14.4 12.5 C 14.4 12.3 14.5 12.2 14.7 12.2 L 16.8 12.2 L 16.8 10 C 16.8 9.8 16.9 9.7 17.1 9.7 L 17.7 9.7 C 17.9 9.7 18 9.8 18 10 L 18 12.1 L 20.1 12.1 C 20.3 12.1 20.4 12.2 20.4 12.4 L 20.4 13.1 L 20.4 13.1 Z M 20.4 13.1" />
</svg>