<?xml version="1.0" encoding="utf-8"?>
<!-- Generator: Avocode 2.4.5 - http://avocode.com -->
<svg height="77" width="90" xmlns:xlink="http://www.w3.org/1999/xlink" xmlns="http://www.w3.org/2000/svg" viewBox="0 0 90 77">
    <path fill="#d2d2d2" fill-rule="evenodd" d="M 2.35 74.46 L 87.46 74.46 L 87.46 27.46 L 2.35 27.46 L 2.35 74.46 Z M 88.63 76.81 L 1.17 76.81 C 0.53 76.81 0 76.28 0 75.64 L 0 26.29 C 0 25.64 0.53 25.12 1.17 25.12 L 88.63 25.12 C 89.28 25.12 89.8 25.64 89.8 26.29 L 89.8 75.64 C 89.8 76.28 89.28 76.81 88.63 76.81 L 88.63 76.81 Z M 88.63 76.81" />
    <path fill="#ffffff" fill-rule="evenodd" d="M 74.44 1.26 L 74.44 36.31 L 74.44 71.36 L 39.64 71.36 L 15.36 71.36 L 15.36 36.31 L 15.36 1.26 L 39.64 1.26 L 74.44 1.26 Z M 74.44 1.26" />
    <path fill="#d2d2d2" fill-rule="evenodd" d="M 16.44 70.28 L 73.37 70.28 L 73.37 2.34 L 16.44 2.34 L 16.44 70.28 Z M 74.44 72.44 L 15.36 72.44 C 14.76 72.44 14.28 71.96 14.28 71.36 L 14.28 1.26 C 14.28 0.66 14.76 0.18 15.36 0.18 L 74.44 0.18 C 75.04 0.18 75.52 0.66 75.52 1.26 L 75.52 71.36 C 75.52 71.96 75.04 72.44 74.44 72.44 L 74.44 72.44 Z M 74.44 72.44" />
    <path fill="#d2d2d2" fill-rule="evenodd" d="M 65.01 13.44 L 26.02 13.44 C 25.37 13.44 24.84 12.91 24.84 12.26 C 24.84 11.62 25.37 11.09 26.02 11.09 L 65.01 11.09 C 65.65 11.09 66.18 11.62 66.18 12.26 C 66.18 12.91 65.65 13.44 65.01 13.44" />
    <path fill="#d2d2d2" fill-rule="evenodd" d="M 65.01 21.06 L 26.02 21.06 C 25.37 21.06 24.84 20.53 24.84 19.89 C 24.84 19.24 25.37 18.71 26.02 18.71 L 65.01 18.71 C 65.65 18.71 66.18 19.24 66.18 19.89 C 66.18 20.53 65.65 21.06 65.01 21.06" />
    <path fill="#d2d2d2" fill-rule="evenodd" d="M 65.01 28.68 L 26.02 28.68 C 25.37 28.68 24.84 28.16 24.84 27.51 C 24.84 26.86 25.37 26.34 26.02 26.34 L 65.01 26.34 C 65.65 26.34 66.18 26.86 66.18 27.51 C 66.18 28.16 65.65 28.68 65.01 28.68" />
    <path fill="#d2d2d2" fill-rule="evenodd" d="M 50.35 36.3 L 26.02 36.3 C 25.37 36.3 24.84 35.78 24.84 35.13 C 24.84 34.48 25.37 33.96 26.02 33.96 L 50.35 33.96 C 51 33.96 51.52 34.48 51.52 35.13 C 51.52 35.78 51 36.3 50.35 36.3" />
    <path fill="#ffffff" fill-rule="evenodd" d="M 88.63 75.64 L 44.9 75.64 L 1.17 75.64 L 1.17 46.56 L 1.17 26.29 L 44.9 55.61 L 88.63 26.29 L 88.63 46.56 L 88.63 75.64 Z M 88.63 75.64" />
    <path fill="#d2d2d2" fill-rule="evenodd" d="M 2.35 74.46 L 87.46 74.46 L 87.46 28.49 L 45.56 56.58 C 45.16 56.85 44.64 56.85 44.25 56.58 L 2.35 28.49 L 2.35 74.46 Z M 88.63 76.81 L 1.17 76.81 C 0.53 76.81 0 76.28 0 75.64 L 0 26.29 C 0 25.85 0.24 25.46 0.62 25.25 C 1 25.05 1.47 25.07 1.83 25.31 L 44.9 54.19 L 87.98 25.31 C 88.34 25.07 88.8 25.05 89.18 25.25 C 89.57 25.46 89.8 25.85 89.8 26.29 L 89.8 75.64 C 89.8 76.28 89.28 76.81 88.63 76.81 L 88.63 76.81 Z M 88.63 76.81" />
    <path fill="#d2d2d2" fill-rule="evenodd" d="M 1.17 76.81 C 0.87 76.81 0.57 76.69 0.34 76.46 C -0.11 76.01 -0.11 75.26 0.34 74.81 L 29.58 45.57 C 30.04 45.11 30.78 45.11 31.24 45.57 C 31.69 46.03 31.69 46.77 31.24 47.23 L 2 76.46 C 1.77 76.69 1.47 76.81 1.17 76.81" />
    <path fill="#d2d2d2" fill-rule="evenodd" d="M 88.63 76.81 C 88.33 76.81 88.03 76.69 87.8 76.46 L 58.19 46.85 C 57.73 46.39 57.73 45.65 58.19 45.19 C 58.64 44.73 59.39 44.73 59.84 45.19 L 89.46 74.81 C 89.92 75.26 89.92 76.01 89.46 76.46 C 89.23 76.69 88.93 76.81 88.63 76.81" />
</svg>