<?xml version="1.0" encoding="utf-8"?>
<!-- Generator: Avocode 2.3.2-ea60620 - http://avocode.com -->
<svg height="29" width="29" xmlns:xlink="http://www.w3.org/1999/xlink" xmlns="http://www.w3.org/2000/svg" viewBox="0 0 29 29">
    <path fill="#2665a9" fill-rule="evenodd" d="M 0.05 0.07 L 28.47 0.07 L 28.47 28.49 L 0.05 28.49 L 0.05 0.07 Z M 0.05 0.07" />
    <path fill="#ffffff" fill-rule="evenodd" d="M 17.89 7.96 C 18.76 7.96 19.55 8.75 19.55 9.62 C 19.55 10.49 18.76 11.28 17.89 11.28 C 17.03 11.28 16.24 10.49 16.24 9.62 C 16.08 8.59 16.87 7.96 17.89 7.96 L 17.89 7.96 Z M 17.89 7.96" />
    <path fill="#ffffff" fill-rule="evenodd" d="M 10.63 7.96 C 11.5 7.96 12.29 8.75 12.29 9.62 C 12.29 10.49 11.5 11.28 10.63 11.28 C 9.76 11.28 8.97 10.49 8.97 9.62 C 8.97 8.59 9.76 7.96 10.63 7.96 L 10.63 7.96 Z M 10.63 7.96" />
    <path fill="#ffffff" fill-rule="evenodd" d="M 23.18 19.8 C 22.95 19.88 22.87 19.88 22.63 19.88 C 22.32 19.88 21.92 19.64 21.76 19.33 L 20.97 17.99 C 19.87 19.09 17.74 20.59 14.34 20.59 C 11.11 20.59 8.89 19.09 7.71 17.99 L 6.92 19.33 C 6.68 19.64 6.37 19.88 6.05 19.88 C 5.82 19.88 5.74 19.88 5.5 19.8 C 4.95 19.49 4.79 18.78 5.18 18.3 L 7.32 14.67 C 7.63 14.12 8.34 13.96 8.82 14.36 C 9.37 14.67 9.53 15.38 9.13 15.86 L 8.74 16.17 C 9.53 16.96 11.34 18.54 14.26 18.54 C 17.34 18.54 19.08 16.96 19.79 16.17 L 19.55 15.86 C 19.24 15.3 19.47 14.75 19.87 14.36 C 20.42 14.04 20.97 14.28 21.37 14.67 L 23.5 18.3 C 23.82 18.78 23.74 19.41 23.18 19.8 L 23.18 19.8 Z M 23.18 19.8" />
</svg>