<?xml version="1.0" encoding="utf-8"?>
<!-- Generator: Avocode 2.3.2-ea60620 - http://avocode.com -->
<svg height="25" width="26" xmlns:xlink="http://www.w3.org/1999/xlink" xmlns="http://www.w3.org/2000/svg" viewBox="0 0 26 25">
    <path stroke-linejoin="miter" stroke-linecap="butt" stroke-width="1" stroke="#ffffff" fill="none" fill-rule="evenodd" d="M 13 24.5 C 19.63 24.5 25 19.13 25 12.5 C 25 5.87 19.63 0.5 13 0.5 C 6.37 0.5 1 5.87 1 12.5 C 1 19.13 6.37 24.5 13 24.5 Z M 13 24.5" />
    <path fill="#ffffff" fill-rule="evenodd" d="M 16.1 10.1 C 16.93 10.1 17.6 9.43 17.6 8.6 C 17.6 7.77 16.93 7.1 16.1 7.1 C 15.27 7.1 14.6 7.77 14.6 8.6 C 14.6 9.43 15.27 10.1 16.1 10.1 Z M 16.1 10.1" />
    <path fill="#ffffff" fill-rule="evenodd" d="M 9.7 10.1 C 10.53 10.1 11.2 9.43 11.2 8.6 C 11.2 7.77 10.53 7.1 9.7 7.1 C 8.87 7.1 8.2 7.77 8.2 8.6 C 8.2 9.43 8.87 10.1 9.7 10.1 Z M 9.7 10.1" />
    <path fill="#ffffff" fill-rule="evenodd" d="M 20.8 17.6 C 20.6 17.7 20.5 17.7 20.3 17.7 C 20 17.7 19.7 17.5 19.5 17.2 L 18.8 16 C 17.8 17 15.9 18.3 12.9 18.3 C 10 18.3 8.1 17 7 16 L 6.3 17.2 C 6.1 17.5 5.8 17.7 5.5 17.7 C 5.3 17.7 5.2 17.7 5 17.6 C 4.5 17.3 4.4 16.7 4.7 16.3 L 6.6 13.1 C 6.9 12.6 7.5 12.5 7.9 12.8 C 8.4 13.1 8.5 13.7 8.2 14.1 L 8 14.4 C 8.7 15.1 10.3 16.5 12.9 16.5 C 15.6 16.5 17.2 15.1 17.8 14.4 L 17.6 14.1 C 17.3 13.6 17.5 13.1 17.9 12.8 C 18.4 12.5 18.9 12.7 19.2 13.1 L 21.1 16.3 C 21.4 16.7 21.3 17.3 20.8 17.6 L 20.8 17.6 Z M 20.8 17.6" />
</svg>