<?xml version="1.0" encoding="utf-8"?>
<!-- Generator: Avocode 2.3.2-ea60620 - http://avocode.com -->
<svg height="18" width="14" xmlns:xlink="http://www.w3.org/1999/xlink" xmlns="http://www.w3.org/2000/svg" viewBox="0 0 14 18">
    <path stroke-linejoin="miter" stroke-linecap="butt" stroke-width="1" stroke="#979797" fill="none" fill-rule="evenodd" d="M 0 2.99 C 0 1.34 1.34 0 3 0 L 11 0 C 12.66 0 14 1.35 14 2.99 L 14 15.01 C 14 16.66 12.66 18 11 18 L 3 18 C 1.34 18 0 16.65 0 15.01 L 0 2.99 Z M 0 2.99" />
    <path stroke-linejoin="miter" stroke-linecap="butt" stroke-width="1" stroke="#979797" fill="none" fill-rule="evenodd" d="M 2 4.01 C 2 2.9 2.89 2 4 2 L 10 2 C 11.1 2 12 2.9 12 4.01 L 12 11.99 C 12 13.1 11.11 14 10 14 L 4 14 C 2.9 14 2 13.1 2 11.99 L 2 4.01 Z M 2 4.01" />
    <path fill="#979797" fill-rule="evenodd" d="M 6 15 L 8 15 L 8 16 L 6 16 L 6 15 Z M 6 15" />
</svg>