<?xml version="1.0" encoding="utf-8"?>
<!-- Generator: Avocode 2.3.2-ea60620 - http://avocode.com -->
<svg height="29" width="30" xmlns:xlink="http://www.w3.org/1999/xlink" xmlns="http://www.w3.org/2000/svg" viewBox="0 0 30 29">
    <path fill="#ed802b" fill-rule="evenodd" d="M 0.63 0.26 L 29.05 0.26 L 29.05 28.68 L 0.63 28.68 L 0.63 0.26 Z M 0.63 0.26" />
    <path fill="#ffffff" fill-rule="evenodd" d="M 16.18 6.82 C 14.05 6.11 11.76 7.13 10.97 9.26 C 10.18 11.39 11.29 13.68 13.42 14.47 C 15.55 15.18 17.84 14.16 18.63 12.03 C 19.34 9.82 18.32 7.61 16.18 6.82 L 16.18 6.82 Z M 16.42 11.16 C 16.11 12.03 15.08 12.5 14.13 12.18 C 13.26 11.95 12.79 10.92 13.11 9.89 C 13.42 9.03 14.45 8.55 15.39 8.87 C 16.26 9.26 16.74 10.29 16.42 11.16 L 16.42 11.16 Z M 16.42 11.16" />
    <path fill="#ffffff" fill-rule="evenodd" d="M 19.18 16.45 C 18.87 17.16 17.61 17.71 17.05 17.79 C 16.5 17.87 16.5 18.03 16.5 18.03 L 18.55 20.08 C 19.03 20.39 19.34 21.11 18.87 21.74 C 18.55 22.29 17.84 22.61 17.29 22.21 C 16.58 21.74 14.84 19.84 14.84 19.84 L 12.71 21.97 C 12.71 21.97 12.16 22.53 11.61 22.29 C 11.05 22.05 10.58 21.58 10.74 20.95 C 10.82 20.24 11.45 19.92 11.45 19.92 L 13.5 18.03 C 13.5 18.03 11.92 17.55 11.21 17.16 C 10.5 16.68 10.42 16.13 10.66 15.58 C 10.89 15.03 11.45 14.79 11.92 14.87 C 12.39 14.95 12.95 15.42 13.74 15.66 C 14.45 15.89 15.63 16.13 16.82 15.58 C 17.92 15.11 18.32 14.71 18.95 14.87 C 18.95 15.11 19.42 15.82 19.18 16.45 L 19.18 16.45 Z M 19.18 16.45" />
</svg>