<?xml version="1.0" encoding="utf-8"?>
<!-- Generator: Avocode 2.3.2-ea60620 - http://avocode.com -->
<svg height="25" width="26" xmlns:xlink="http://www.w3.org/1999/xlink" xmlns="http://www.w3.org/2000/svg" viewBox="0 0 26 25">
    <path stroke-linejoin="miter" stroke-linecap="butt" stroke-width="1" stroke="#ffffff" fill="none" fill-rule="evenodd" d="M 13 24.5 C 19.63 24.5 25 19.13 25 12.5 C 25 5.87 19.63 0.5 13 0.5 C 6.37 0.5 1 5.87 1 12.5 C 1 19.13 6.37 24.5 13 24.5 Z M 13 24.5" />
    <path fill="#ffffff" fill-rule="evenodd" d="M 14.3 5.7 C 12.4 5 10.4 6 9.7 7.9 C 9 9.8 10 11.8 11.9 12.5 C 13.8 13.2 15.8 12.2 16.5 10.3 C 17.1 8.4 16.1 6.4 14.3 5.7 L 14.3 5.7 Z M 14.5 9.6 C 14.2 10.4 13.3 10.8 12.5 10.5 C 11.7 10.2 11.3 9.3 11.6 8.5 C 11.9 7.7 12.8 7.3 13.6 7.6 C 14.4 7.9 14.8 8.8 14.5 9.6 L 14.5 9.6 Z M 14.5 9.6" />
    <path fill="#ffffff" fill-rule="evenodd" d="M 16.9 14.3 C 16.6 14.9 15.5 15.4 15 15.5 C 14.5 15.6 14.5 15.7 14.5 15.7 L 16.3 17.5 C 16.7 17.8 17 18.4 16.6 19 C 16.3 19.5 15.7 19.8 15.2 19.4 C 14.6 19 13 17.3 13 17.3 L 11.1 19.3 C 11.1 19.3 10.6 19.8 10.1 19.6 C 9.6 19.4 9.2 19 9.3 18.4 C 9.4 17.8 9.9 17.5 9.9 17.5 L 11.6 15.7 C 11.6 15.7 10.2 15.4 9.6 14.9 C 9 14.5 8.9 14 9.1 13.5 C 9.3 13 9.8 12.8 10.2 12.9 C 10.6 13 11.1 13.4 11.8 13.6 C 12.4 13.8 13.5 14 14.5 13.5 C 15.5 13.1 15.8 12.7 16.4 12.9 C 16.8 13 17.2 13.7 16.9 14.3 L 16.9 14.3 Z M 16.9 14.3" />
</svg>