<!-- Generator: Avocode 2.2.1-ae398a7 - http://avocode.com -->
<svg height="20" width="13" xmlns:xlink="http://www.w3.org/1999/xlink" xmlns="http://www.w3.org/2000/svg" viewBox="0 0 13 20">
    <path fill="#d2d2d2" fill-rule="evenodd" d="M 13 6.67 C 13 7.6 12.87 8.4 12.61 9 C 12.61 9 6.76 19.6 6.5 20 C 6.24 19.6 0.39 9 0.39 9 C 0.13 8.4 0 7.6 0 6.67 C 0 4.8 0.65 3.27 1.88 1.93 C 3.19 0.67 4.68 0 6.5 0 C 8.32 0 9.81 0.67 11.12 1.93 C 12.35 3.27 13 4.8 13 6.67 L 13 6.67 Z M 8.77 9 C 9.43 8.33 9.75 7.53 9.75 6.67 C 9.75 5.73 9.43 4.93 8.77 4.33 C 8.13 3.67 7.35 3.33 6.5 3.33 C 5.59 3.33 4.81 3.67 4.23 4.33 C 3.57 5 3.25 5.8 3.25 6.67 C 3.25 7.6 3.57 8.4 4.23 9 C 4.88 9.67 5.65 10 6.5 10 C 7.41 10 8.19 9.67 8.77 9 L 8.77 9 Z M 8.77 9" />
</svg>