<?xml version="1.0" encoding="utf-8"?>
<!-- Generator: Avocode 2.3.2-ea60620 - http://avocode.com -->
<svg height="29" width="29" xmlns:xlink="http://www.w3.org/1999/xlink" xmlns="http://www.w3.org/2000/svg" viewBox="0 0 29 29">
    <path fill="#6bacdf" fill-rule="evenodd" d="M 0.42 0.42 L 28.84 0.42 L 28.84 28.84 L 0.42 28.84 L 0.42 0.42 Z M 0.42 0.42" />
    <path fill="#ffffff" fill-rule="evenodd" d="M 22.29 9.89 C 21.74 10.13 21.11 10.29 20.47 10.37 C 21.11 9.97 21.58 9.34 21.82 8.63 C 21.18 9.03 20.55 9.26 19.84 9.42 C 19.29 8.79 18.42 8.39 17.55 8.39 C 15.82 8.39 14.39 9.82 14.39 11.55 C 14.39 11.79 14.39 12.03 14.47 12.26 C 11.87 12.11 9.58 10.92 8 9.03 C 7.76 9.5 7.61 10.05 7.61 10.61 C 7.61 11.71 8.16 12.66 9.03 13.21 C 8.47 13.21 8 13.05 7.61 12.82 L 7.61 12.82 C 7.61 14.32 8.71 15.58 10.13 15.89 C 9.89 15.97 9.58 15.97 9.34 15.97 C 9.11 15.97 8.95 15.97 8.79 15.89 C 9.18 17.16 10.37 18.03 11.71 18.11 C 10.61 18.97 9.26 19.45 7.84 19.45 C 7.61 19.45 7.37 19.45 7.13 19.37 C 8.55 20.24 10.13 20.79 11.95 20.79 C 17.71 20.79 20.87 16.05 20.87 11.87 L 20.87 11.47 C 21.34 11.08 21.82 10.53 22.29 9.89 L 22.29 9.89 Z M 22.29 9.89" />
</svg>