<?xml version="1.0" encoding="utf-8"?>
<!-- Generator: Avocode 2.3.2-ea60620 - http://avocode.com -->
<svg height="26" width="26" xmlns:xlink="http://www.w3.org/1999/xlink" xmlns="http://www.w3.org/2000/svg" viewBox="0 0 26 26">
    <path stroke-linejoin="miter" stroke-linecap="butt" stroke-width="1" stroke="#ffffff" fill="none" fill-rule="evenodd" d="M 13 25.4 C 19.63 25.4 25 20.03 25 13.4 C 25 6.77 19.63 1.4 13 1.4 C 6.37 1.4 1 6.77 1 13.4 C 1 20.03 6.37 25.4 13 25.4 Z M 13 25.4" />
    <path fill="#ffffff" fill-rule="evenodd" d="M 16.2 20.3 C 15.7 20.3 13 20.2 12.3 20.2 C 11.6 20.2 8 19.1 8 15.1 L 8 13 L 8 11 L 8 10.4 C 8 9.4 7.9 8.3 8.2 7.3 C 8.4 6.6 9 6.3 9.8 6.3 C 11.6 6.3 11.7 8.1 11.7 9.9 L 16.8 9.9 C 17.6 9.9 18.2 10.7 18.2 12 C 18.2 13.2 16.9 13.5 16.2 13.5 L 11.7 13.5 L 11.7 15.3 C 11.7 16.1 12 17 13.9 17 L 16.6 17 C 17.3 17 18.3 17.5 18.3 18.9 C 18.1 20.2 16.7 20.3 16.2 20.3 L 16.2 20.3 Z M 16.2 20.3" />
</svg>