<?xml version="1.0" encoding="UTF-8" standalone="no"?>
<svg width="91px" height="83px" viewBox="0 0 91 83" version="1.1" xmlns="http://www.w3.org/2000/svg" xmlns:xlink="http://www.w3.org/1999/xlink">
    <!-- Generator: Sketch 39.1 (31720) - http://www.bohemiancoding.com/sketch -->
    <title>Layer_1</title>
    <desc>Created with Sketch.</desc>
    <defs></defs>
    <g id="Page-1" stroke="none" stroke-width="1" fill="none" fill-rule="evenodd">
        <g id="Desktop-HD" transform="translate(-595.000000, -185.000000)">
            <g id="Vignette" transform="translate(360.000000, 100.000000)">
                <g id="screen---1">
                    <g id="Select-Photo" transform="translate(0.000000, 55.000000)">
                        <g id="Upload_image" transform="translate(235.000000, 30.000000)">
                            <g id="Layer_1">
                                <g id="Group">
                                    <g id="Shape">
                                        <path d="M21,56.2 C10.1,56.2 1.2,47.3 1.2,36.4 C1.2,25.5 10.1,16.7 21,16.7 C22.3,16.7 23.5,16.8 24.7,17.1 C29.1,8 38.3,1.9 49,1.9 C63.8,1.9 75.8,13.8 76,28.5 C83.6,28.6 89.8,34.9 89.8,42.5 C89.8,50.3 83.5,56.5 75.8,56.5 L21,56.2 L21,56.2 Z" fill="#FFFFFF"></path>
                                        <path d="M75.7,57.5 L75.7,57.5 L21,57.2 C9.5,57.2 0.2,47.9 0.2,36.4 C0.2,25 9.6,15.7 21,15.7 C22,15.7 23.1,15.8 24.1,15.9 C29,6.6 38.4,0.9 49,0.9 C63.9,0.9 76.3,12.8 77,27.6 C84.7,28.2 90.8,34.7 90.8,42.6 C90.8,50.8 84,57.5 75.7,57.5 L75.7,57.5 Z M21,17.7 C10.6,17.7 2.2,26.1 2.2,36.5 C2.2,46.9 10.6,55.3 21,55.3 L75.7,55.6 C82.9,55.6 88.7,49.8 88.7,42.6 C88.7,35.5 83,29.7 75.9,29.6 L74.9,29.6 L74.9,28.6 C74.8,14.3 63.1,2.9 49,2.9 C39,2.9 30,8.5 25.6,17.5 L25.3,18.2 L24.5,18 C23.3,17.8 22.1,17.7 21,17.7 L21,17.7 Z" fill="#D2D2D2"></path>
                                    </g>
                                    <g transform="translate(31.000000, 12.000000)" id="Shape">
                                        <polygon fill="#FFFFFF" points="27.2 17.2 14.5 1.5 1.8 17.2 10 17.2 10 52.1 19.1 52.1 19.1 17.2"></polygon>
                                        <path d="M19.1,53.1 L10,53.1 C9.4,53.1 9,52.7 9,52.1 L9,18.1 L1.8,18.1 C1.4,18.1 1.1,17.9 0.9,17.5 C0.7,17.2 0.8,16.7 1,16.4 L13.7,0.8 C14.1,0.3 14.9,0.3 15.3,0.8 L28,16.5 C28.2,16.8 28.3,17.2 28.1,17.6 C27.9,17.9 27.6,18.2 27.2,18.2 L20.1,18.2 L20.1,52.2 C20.1,52.7 19.6,53.1 19.1,53.1 L19.1,53.1 Z M11,51.1 L18.1,51.1 L18.1,17.1 C18.1,16.5 18.5,16.1 19.1,16.1 L25.1,16.1 L14.5,3.1 L3.9,16.1 L10,16.1 C10.6,16.1 11,16.5 11,17.1 L11,51.1 L11,51.1 Z" fill="#D2D2D2"></path>
                                    </g>
                                    <g transform="translate(14.000000, 37.000000)">
                                        <g>
                                            <rect id="Rectangle-path" fill="#FFFFFF" x="1.9" y="1.8" width="59.2" height="43"></rect>
                                            <path d="M61.1,45.9 L1.9,45.9 C1.3,45.9 0.9,45.5 0.9,44.9 L0.9,1.9 C0.9,1.3 1.3,0.9 1.9,0.9 L61.1,0.9 C61.7,0.9 62.1,1.3 62.1,1.9 L62.1,44.9 C62.1,45.4 61.7,45.9 61.1,45.9 L61.1,45.9 Z M2.9,43.9 L60.1,43.9 L60.1,2.9 L2.9,2.9 L2.9,43.9 L2.9,43.9 Z" id="Shape" fill="#D2D2D2"></path>
                                        </g>
                                        <g transform="translate(6.000000, 6.000000)">
                                            <rect id="Rectangle-path" fill="#FFFFFF" x="1.8" y="1.4" width="47.4" height="31.8"></rect>
                                            <path d="M49.2,34.2 L1.8,34.2 C1.2,34.2 0.8,33.8 0.8,33.2 L0.8,1.4 C0.8,0.8 1.2,0.4 1.8,0.4 L49.2,0.4 C49.8,0.4 50.2,0.8 50.2,1.4 L50.2,33.2 C50.2,33.8 49.7,34.2 49.2,34.2 L49.2,34.2 Z M2.8,32.2 L48.2,32.2 L48.2,2.4 L2.8,2.4 L2.8,32.2 L2.8,32.2 Z" id="Shape" fill="#D2D2D2"></path>
                                        </g>
                                        <g transform="translate(6.000000, 17.000000)" id="Shape">
                                            <polyline fill="#FFFFFF" points="1.2 19.1 12.2 9.4 23.2 15.5 35.6 1.5 48.7 11.7"></polyline>
                                            <path d="M1.9,19.8 L0.6,18.3 L11.6,8.6 C11.9,8.3 12.4,8.3 12.7,8.5 L23,14.2 L35,0.8 C35.4,0.4 35.9,0.4 36.4,0.7 L49.5,10.9 L48.3,12.5 L36,2.9 L23.9,16.1 C23.6,16.4 23.1,16.5 22.7,16.3 L12.3,10.6 L1.9,19.8 L1.9,19.8 Z" fill="#D2D2D2"></path>
                                        </g>
                                        <g transform="translate(14.000000, 11.000000)">
                                            <circle id="Oval" fill="#FFFFFF" cx="6.3" cy="6.3" r="4.4"></circle>
                                            <path d="M6.3,11.7 C3.3,11.7 0.9,9.3 0.9,6.3 C0.9,3.3 3.3,0.9 6.3,0.9 C9.3,0.9 11.7,3.3 11.7,6.3 C11.7,9.3 9.3,11.7 6.3,11.7 L6.3,11.7 Z M6.3,2.9 C4.4,2.9 2.9,4.4 2.9,6.3 C2.9,8.2 4.4,9.7 6.3,9.7 C8.2,9.7 9.7,8.2 9.7,6.3 C9.7,4.4 8.2,2.9 6.3,2.9 L6.3,2.9 Z" id="Shape" fill="#D2D2D2"></path>
                                        </g>
                                    </g>
                                </g>
                            </g>
                        </g>
                    </g>
                </g>
            </g>
        </g>
    </g>
</svg>