<?xml version="1.0" encoding="utf-8"?>
<!-- Generator: Avocode 2.4.5 - http://avocode.com -->
<svg height="100" width="100" xmlns:xlink="http://www.w3.org/1999/xlink" xmlns="http://www.w3.org/2000/svg" viewBox="0 0 100 100">
    <path fill="#d2d2d2" fill-rule="evenodd" d="M 0 100 L 99.83 100 L 99.83 0.17 L 0 0.17 L 0 100 Z M 0 100" />
    <path fill="#ffffff" fill-rule="evenodd" d="M 79.84 35.04 L 77.15 35.03 C 77.15 35.03 73.14 32.83 70.45 32.82 C 67.76 32.82 60.17 35.66 60.17 35.66 L 54.99 29.15 L 35.76 20.14 L 38.27 26.23 L 42.47 30.66 L 40.96 37.87 L 42.17 39.75 L 44.84 40.33 L 42.83 43.06 L 44.54 44.16 L 34.34 47.81 L 35.58 50.17 L 18.09 57.77 L 19.33 59.69 L 34.42 57.18 L 29.37 63.55 L 30.14 64.74 L 36.01 61.34 L 26.52 70.76 L 27.73 72.72 L 51.27 57.68 L 52.22 59.14 L 56.96 58.39 L 53.71 62.12 L 54.26 62.96 L 58.74 60.81 L 58.63 64.11 L 64.79 68.77 L 65.63 72.52 L 67.64 73.41 L 69.2 80.03 L 71.52 66.43 L 69.39 50.59 L 67.72 47.01 L 73.1 42.65 L 77.03 37.5 L 81.74 35.6 L 79.84 35.04 Z M 79.84 35.04" />
</svg>