<?xml version="1.0" encoding="utf-8"?>
<!-- Generator: Avocode 2.4.5 - http://avocode.com -->
<svg height="38" width="38" xmlns:xlink="http://www.w3.org/1999/xlink" xmlns="http://www.w3.org/2000/svg" viewBox="0 0 38 38">
    <path stroke-linejoin="miter" stroke-linecap="butt" stroke-width="1" stroke="#ffffff" fill="none" fill-rule="evenodd" d="M 19 37 C 28.94 37 37 28.94 37 19 C 37 9.06 28.94 1 19 1 C 9.06 1 1 9.06 1 19 C 1 28.94 9.06 37 19 37 Z M 19 37" />
    <path fill="#ffffff" fill-rule="evenodd" d="M 26.19 23.37 C 25.63 22.92 25.03 22.51 24.44 22.09 C 23.25 21.26 22.17 21.2 21.29 22.53 C 20.8 23.28 20.1 23.32 19.38 22.99 C 17.38 22.08 15.84 20.69 14.93 18.66 C 14.53 17.76 14.54 16.95 15.48 16.32 C 15.97 15.98 16.47 15.58 16.43 14.85 C 16.38 13.89 14.05 10.69 13.13 10.35 C 12.75 10.21 12.38 10.22 11.99 10.35 C 9.84 11.08 8.95 12.85 9.8 14.94 C 12.35 21.2 16.83 25.55 23 28.21 C 23.35 28.36 23.74 28.42 23.94 28.47 C 25.35 28.49 26.99 27.13 27.47 25.79 C 27.93 24.5 26.96 23.99 26.19 23.37 L 26.19 23.37 Z M 19.27 10.99 C 23.79 11.69 25.87 13.83 26.44 18.38 C 26.49 18.8 26.34 19.43 26.94 19.44 C 27.56 19.45 27.41 18.83 27.42 18.41 C 27.47 14.13 23.74 10.16 19.4 10.02 C 19.08 10.06 18.4 9.79 18.36 10.52 C 18.33 11.02 18.9 10.94 19.27 10.99 L 19.27 10.99 Z M 20.16 12.24 C 19.72 12.19 19.15 11.98 19.05 12.59 C 18.94 13.22 19.58 13.15 19.99 13.25 C 22.78 13.87 23.75 14.88 24.21 17.65 C 24.27 18.05 24.14 18.68 24.83 18.57 C 25.33 18.5 25.15 17.96 25.19 17.64 C 25.21 14.99 22.94 12.57 20.16 12.24 L 20.16 12.24 Z M 20.41 14.41 C 20.12 14.42 19.84 14.45 19.73 14.76 C 19.57 15.22 19.91 15.33 20.25 15.39 C 21.39 15.57 22 16.24 22.11 17.38 C 22.14 17.69 22.34 17.94 22.64 17.91 C 23.05 17.86 23.09 17.49 23.07 17.14 C 23.09 15.86 21.65 14.38 20.41 14.41 L 20.41 14.41 Z M 20.41 14.41" />
</svg>