<?xml version="1.0" encoding="utf-8"?>
<!-- Generator: Avocode 2.3.2-ea60620 - http://avocode.com -->
<svg height="29" width="29" xmlns:xlink="http://www.w3.org/1999/xlink" xmlns="http://www.w3.org/2000/svg" viewBox="0 0 29 29">
    <path fill="#4c75a3" fill-rule="evenodd" d="M 0.21 0.26 L 28.63 0.26 L 28.63 28.68 L 0.21 28.68 L 0.21 0.26 Z M 0.21 0.26" />
    <path fill="#ffffff" fill-rule="evenodd" d="M 19.24 14.87 C 18.76 14.39 18.45 14.08 17.58 14 L 17.58 13.92 C 18.13 13.68 18.61 13.37 18.92 12.89 C 19.24 12.58 19.39 12.03 19.39 11.39 C 19.39 10.76 19.32 10.37 19.08 10.05 C 18.84 9.74 18.37 9.34 17.97 9.18 C 17.5 8.95 16.95 8.87 16.47 8.71 C 16 8.63 14.89 8.63 13.87 8.63 L 8.82 8.63 L 8.82 20.47 L 14.42 20.47 C 15.45 20.47 16.24 20.39 16.79 20.24 C 17.34 20 17.89 19.76 18.45 19.45 C 18.92 19.13 19.24 18.74 19.47 18.34 C 19.79 17.87 19.95 17.47 20.03 16.84 C 20.03 15.97 19.71 15.34 19.24 14.87 L 19.24 14.87 Z M 12.53 10.76 L 12.84 10.76 L 13.95 10.76 C 14.26 10.76 14.66 10.76 14.82 10.84 C 15.05 10.92 15.29 11.08 15.37 11.32 C 15.45 11.55 15.45 11.63 15.45 11.87 C 15.45 12.11 15.45 12.34 15.37 12.58 C 15.29 12.82 15.13 12.89 14.82 13.05 C 14.58 13.05 14.26 13.13 13.95 13.13 C 13.47 13.13 13.47 13.13 13.08 13.21 L 12.53 13.21 L 12.53 10.76 L 12.53 10.76 Z M 16.08 17.32 C 16 17.55 15.76 17.79 15.37 17.87 C 15.05 17.95 14.66 18.11 14.26 18.11 L 12.68 18.11 L 12.45 18.11 L 12.45 15.26 L 13.16 15.26 L 14.18 15.26 C 14.66 15.26 15.05 15.26 15.29 15.34 C 15.61 15.34 16 15.58 16.08 15.66 C 16.16 15.89 16.32 16.13 16.32 16.45 C 16.32 16.92 16.24 17.08 16.08 17.32 L 16.08 17.32 Z M 16.08 17.32" />
</svg>