<?xml version="1.0" encoding="utf-8"?>
<!-- Generator: Avocode 2.3.2-ea60620 - http://avocode.com -->
<svg height="26" width="26" xmlns:xlink="http://www.w3.org/1999/xlink" xmlns="http://www.w3.org/2000/svg" viewBox="0 0 26 26">
    <path stroke-linejoin="miter" stroke-linecap="butt" stroke-width="1" stroke="#ffffff" fill="none" fill-rule="evenodd" d="M 13 25.2 C 19.63 25.2 25 19.83 25 13.2 C 25 6.57 19.63 1.2 13 1.2 C 6.37 1.2 1 6.57 1 13.2 C 1 19.83 6.37 25.2 13 25.2 Z M 13 25.2" />
    <path fill="#ffffff" fill-rule="evenodd" d="M 17.4 13.6 C 17 13.2 16.6 12.9 15.9 12.8 L 15.9 12.7 C 16.4 12.5 16.9 12.2 17.1 11.8 C 17.4 11.4 17.5 11 17.5 10.5 C 17.5 10.1 17.4 9.7 17.2 9.3 C 17 9 16.7 8.7 16.2 8.5 C 15.8 8.3 15.3 8.2 14.9 8.1 C 14.6 8 13.6 8 12.7 8 L 8.2 8 L 8.2 18.5 L 13.2 18.5 C 14 18.5 14.7 18.4 15.3 18.3 C 15.8 18.2 16.3 17.9 16.8 17.6 C 17.2 17.3 17.5 17 17.7 16.6 C 17.9 16.2 18 15.7 18 15.2 C 18.1 14.6 17.9 14 17.4 13.6 L 17.4 13.6 Z M 11.5 9.9 L 11.8 9.9 L 12.8 9.9 C 13.1 9.9 13.4 9.9 13.6 10 C 13.8 10.1 14 10.2 14.1 10.4 C 14.2 10.6 14.2 10.7 14.2 10.9 C 14.2 11.1 14.2 11.3 14.1 11.5 C 14 11.7 13.8 11.8 13.6 11.9 C 13.4 12 13.1 12 12.8 12 L 12 12 L 11.5 12 L 11.5 9.9 L 11.5 9.9 Z M 14.8 15.8 C 14.7 16 14.5 16.1 14.2 16.3 C 13.9 16.4 13.6 16.5 13.2 16.5 L 11.8 16.5 L 11.6 16.5 L 11.6 14 L 12.2 14 L 13.1 14 C 13.5 14 13.8 14 14.1 14.1 C 14.4 14.2 14.7 14.3 14.8 14.5 C 14.9 14.7 15 14.9 15 15.2 C 14.9 15.4 14.9 15.6 14.8 15.8 L 14.8 15.8 Z M 14.8 15.8" />
</svg>