<?xml version="1.0" encoding="utf-8"?>
<!-- Generator: Avocode 2.3.2-ea60620 - http://avocode.com -->
<svg height="21" width="16" xmlns:xlink="http://www.w3.org/1999/xlink" xmlns="http://www.w3.org/2000/svg" viewBox="0 0 16 21">
    <path fill="#0083cd" fill-rule="evenodd" d="M 7.21 20.1 L 7.75 19.56 L 8.62 19.97 L 8.84 18.13 L 10.02 17.28 L 10.02 16.64 L 10.97 15.94 L 10.61 13.4 L 11.79 12.57 L 11.93 13.54 L 13.03 13.05 L 13.75 13.84 L 14.29 13.01 L 14.7 13.69 L 16 13.41 L 15.13 12.43 L 14.95 10.26 L 13.79 10.02 L 13.2 8.56 L 13.48 7.07 L 12.4 7.41 L 11.36 5.84 L 12.02 3.6 L 11.34 2.88 L 10.8 3.4 L 9.94 2.12 L 8.72 1.79 L 8.48 2.74 L 7.18 1.37 L 4.52 0.06 L 3.12 0.46 L 1.15 0.28 L 0 1.31 L 1.67 1.67 L 6.37 10.04 L 7.76 12.85 L 6.63 15.73 L 6.75 19.17 L 7.21 20.1 Z M 7.21 20.1" />
</svg>