<?xml version="1.0" encoding="UTF-8" standalone="no"?>
<svg width="14px" height="18px" viewBox="0 0 14 18" version="1.1" xmlns="http://www.w3.org/2000/svg" xmlns:xlink="http://www.w3.org/1999/xlink">
    <!-- Generator: Sketch 3.6.1 (26313) - http://www.bohemiancoding.com/sketch -->
    <title>Ebook icon</title>
    <desc>Created with Sketch.</desc>
    <defs></defs>
    <g id="NEW-MENU" stroke="none" stroke-width="1" fill="none" fill-rule="evenodd">
        <g id="Menu-Expanded-w/User-Copy" transform="translate(-595.000000, -690.000000)" fill="#979797">
            <g id="Ebook-icon" transform="translate(595.000000, 690.000000)">
                <path d="M1,1.99508929 L1,1.99508929 L1,16.0049107 C1,16.5536259 1.44887827,17 2.00585866,17 L11.9941413,17 C12.5514374,17 13,16.553693 13,16.0049107 L13,1.99508929 C13,1.44637411 12.5511217,1 11.9941413,1 L2.00585866,1 C1.44856259,1 1,1.44630695 1,1.99508929 L1,1.99508929 Z M0,1.99508929 C0,0.893231902 0.897060126,0 2.00585866,0 L11.9941413,0 C13.1019465,0 14,0.892622799 14,1.99508929 L14,16.0049107 C14,17.1067681 13.1029399,18 11.9941413,18 L2.00585866,18 C0.898053512,18 0,17.1073772 0,16.0049107 L0,1.99508929 L0,1.99508929 Z" id="Rectangle-308-Copy"></path>
                <path d="M11,7 L11,7 L12,7 L11,8 L11,0 L12,1 L6,1 L7,0 L7,8 L6,7 L7,7 L6.29289322,7.29289322 L8.29289322,5.29289322 L9,4.58578644 L9.70710678,5.29289322 L11.7071068,7.29289322 L11,7 Z M11,8 L11,8 L9,6 L7,8 L6,8 L6,0 L12,0 L12,8 L11,8 Z" id="Combined-Shape"></path>
                <rect id="Rectangle-313" x="2" y="5" width="3" height="1"></rect>
                <rect id="Rectangle-313-Copy" x="2" y="7" width="3" height="1"></rect>
                <rect id="Rectangle-313-Copy-2" x="2" y="9" width="10" height="1"></rect>
                <rect id="Rectangle-313-Copy-3" x="2" y="11" width="10" height="1"></rect>
                <rect id="Rectangle-313-Copy-4" x="2" y="13" width="10" height="1"></rect>
            </g>
        </g>
    </g>
</svg>