<?xml version="1.0" encoding="utf-8"?>
<!-- Generator: Avocode 2.3.2-ea60620 - http://avocode.com -->
<svg height="38" width="150" xmlns:xlink="http://www.w3.org/1999/xlink" xmlns="http://www.w3.org/2000/svg" viewBox="0 0 150 38">
    <path fill="#ffffff" fill-rule="evenodd" d="M 137.03 18.84 L 140.58 18.84 L 140.58 27.54 L 134.2 27.54 C 134.42 24.35 135.58 21.52 136.74 19.35 C 136.81 19.2 136.88 18.99 137.03 18.84 L 137.03 18.84 Z M 132.46 14.35 C 131.3 15.29 129.93 16.88 128.99 18.04 C 126.67 22.25 126.01 27.46 126.01 32.03 C 126.3 32.75 126.3 33.91 126.45 34.57 L 133.41 34.57 C 133.62 33.91 133.41 32.9 133.62 32.03 L 140.43 32.03 L 140.43 34.57 L 149.78 34.57 L 149.78 14.35 L 132.46 14.35 L 132.46 14.35 Z M 132.46 14.35" />
    <path fill="#ffffff" fill-rule="evenodd" d="M 61.74 18.84 L 64.64 18.84 L 64.64 27.54 L 58.91 27.54 C 59.13 24.35 60.29 21.52 61.45 19.35 C 61.52 19.2 61.59 18.99 61.74 18.84 L 61.74 18.84 Z M 57.17 14.35 C 56.01 15.29 54.64 16.88 53.7 18.04 C 51.45 22.25 50.72 27.46 50.72 32.03 C 51.01 32.75 51.01 33.91 51.16 34.57 L 58.12 34.57 C 58.33 33.91 58.12 32.9 58.33 32.03 L 64.49 32.03 L 64.49 34.57 L 74.42 34.57 L 74.42 14.35 L 57.17 14.35 L 57.17 14.35 Z M 57.17 14.35" />
    <path fill="#ffffff" fill-rule="evenodd" d="M 115.29 27.9 L 109.28 27.9 C 109.57 25.43 110.72 22.17 112.32 20.14 C 112.61 19.71 112.97 19.28 113.33 18.91 L 115.36 18.91 L 115.36 27.9 L 115.29 27.9 Z M 123.48 14.35 L 107.68 14.35 C 104.71 17.61 103.33 22.83 102.83 27.9 L 101.01 27.9 L 101.01 37.32 L 106.3 37.32 C 108.12 35 108.12 34.57 110.43 33.62 C 110.72 33.48 111.01 33.41 111.3 33.33 C 112.75 33.04 114.57 33.26 115.65 34.06 C 117.03 34.78 117.32 36.16 117.75 37.32 L 125.07 37.32 L 125.07 27.9 L 123.48 27.9 L 123.48 14.35 L 123.48 14.35 Z M 123.48 14.35" />
    <path fill="#ffffff" fill-rule="evenodd" d="M 90.94 31.88 L 85.14 31.88 L 85.14 28.91 L 88.33 27.1 L 90.51 26.09 C 90.87 25.72 91.23 25.72 91.23 26.09 C 92.83 27.9 92.39 30.94 90.94 31.88 L 90.94 31.88 Z M 84.78 18.04 L 87.97 18.04 C 88.26 18.04 88.62 18.19 88.91 18.33 C 89.57 18.55 90.22 19.06 90.51 19.35 C 90.94 20.22 90.07 21.23 90.07 21.59 L 88.91 22.17 L 84.78 24.49 L 84.78 18.04 L 84.78 18.04 Z M 99.78 19.42 C 100.07 18.04 99.57 16.67 98.7 15.58 C 97.54 14.86 95 14.42 91.74 14.42 L 76.59 14.42 L 76.59 34.64 L 94.06 34.64 C 97.75 34.64 97.54 33.99 97.97 33.7 C 99.13 32.97 99.64 32.32 99.78 31.23 C 100.51 28.26 98.7 25.43 96.81 23.41 C 97.75 22.25 99.35 21.3 99.78 19.42 L 99.78 19.42 Z M 99.78 19.42" />
    <path fill="#ffffff" fill-rule="evenodd" d="M 42.03 21.96 C 41.3 22.68 40.58 23.33 39.86 23.77 C 38.84 24.42 37.25 25 36.45 25.36 L 36.45 18.55 L 39.78 18.55 C 39.78 18.55 39.78 18.62 39.86 18.62 C 41.23 18.62 41.59 18.91 42.03 18.91 C 42.75 20.14 42.75 21.23 42.03 21.96 L 42.03 21.96 Z M 51.38 21.01 C 51.52 19.93 51.3 18.7 50.94 17.68 C 50.65 17.03 50.29 16.45 49.78 15.94 C 47.03 14.28 44.93 14.28 42.17 14.28 L 26.09 14.28 L 26.09 34.49 L 36.45 34.49 L 36.45 31.16 C 36.96 30.94 38.19 30.72 38.77 30.51 C 40.8 29.78 42.9 28.99 44.86 27.9 C 46.01 27.25 47.17 26.81 48.33 26.01 C 49.42 25.36 50.36 24.28 50.87 22.9 C 51.09 22.32 51.23 21.67 51.38 21.01 L 51.38 21.01 Z M 51.38 21.01" />
    <path fill="#ffffff" fill-rule="evenodd" d="M 0.29 34.64 L 9.78 34.64 L 9.78 21.52 L 14.71 21.52 L 14.71 34.64 L 24.2 34.64 L 24.2 14.35 L 0.29 14.35 L 0.29 34.64" />
    <path fill="#ffffff" fill-rule="evenodd" d="M 145.22 4.86 C 144.86 4.86 144.49 4.86 144.13 4.78 C 143.91 4.78 143.62 4.64 143.48 4.42 C 143.19 4.28 142.61 3.19 143.48 2.54 C 143.62 2.39 143.84 2.32 144.13 2.25 C 144.49 2.25 144.86 2.17 145.22 2.17 L 145.22 4.86 L 145.22 4.86 Z M 144.57 0.22 L 142.97 0.22 C 141.59 0.22 141.45 0.22 140.72 0.72 C 140.07 1.09 139.49 1.74 139.2 2.61 C 139.2 3.99 139.93 5 140.72 5.51 C 140.36 6.3 139.49 7.03 139.2 7.9 C 138.84 8.62 138.48 9.64 138.84 10.51 L 142.9 10.51 C 143.04 9.78 143.04 8.77 143.62 8.26 C 143.77 7.83 144.06 7.32 144.49 7.03 C 144.71 6.88 144.93 6.81 145.14 6.67 L 145.14 10.51 L 149.64 10.51 L 149.64 0.22 L 144.57 0.22 L 144.57 0.22 Z M 144.57 0.22" />
    <path fill="#ffffff" fill-rule="evenodd" d="M 131.88 6.38 L 131.01 6.38 L 131.88 2.68 L 132.03 3.33 L 132.68 6.38 L 131.88 6.38 L 131.88 6.38 Z M 134.06 10.51 L 138.33 10.51 L 135.07 0.22 L 128.99 0.22 L 125.36 10.51 L 129.64 10.51 L 130.36 8.62 L 133.48 8.62 L 134.06 10.51 L 134.06 10.51 Z M 134.06 10.51" />
    <path fill="#ffffff" fill-rule="evenodd" d="M 96.81 8.41 L 96.81 5.65 C 97.39 5.65 97.61 5.65 97.83 5.72 C 98.04 5.72 98.12 5.87 98.48 6.01 C 99.06 6.38 99.06 7.17 98.77 7.61 C 98.55 7.83 98.19 7.97 97.83 8.12 C 97.46 8.26 97.1 8.33 96.81 8.41 L 96.81 8.41 Z M 98.41 10.51 C 99.28 10.51 100.29 10.14 100.94 9.78 C 101.96 9.28 102.32 8.04 102.32 6.67 C 101.96 5.51 101.3 4.64 100.58 3.91 C 99.42 3.26 98.48 3.7 97.46 3.99 C 97.25 4.06 97.03 4.13 96.81 4.13 L 96.81 0.22 L 92.39 0.22 L 92.39 10.51 L 98.41 10.51 L 98.41 10.51 Z M 98.41 10.51" />
    <path fill="#ffffff" fill-rule="evenodd" d="M 117.17 6.74 C 117.54 6.74 118.19 6.96 118.55 7.1 C 119.57 7.97 119.57 9.35 119.71 10.58 L 124.64 10.58 C 124.28 8.84 123.99 6.74 122.61 5.43 C 123.12 4.28 123.62 4.06 124.13 2.17 C 124.28 1.67 124.28 0.8 124.28 0.29 L 119.64 0.29 C 119.49 0.8 119.49 1.67 119.28 2.39 C 118.77 2.9 117.9 3.55 117.1 3.55 L 117.1 0.29 L 112.83 0.29 L 112.83 10.58 L 117.1 10.58 L 117.1 6.74" />
    <path fill="#ffffff" fill-rule="evenodd" d="M 79.93 10.14 C 79.93 10.36 79.93 10.14 79.93 10.36 C 81.45 10.72 82.39 10.72 83.62 9.86 C 84.13 9.13 84.42 8.7 84.42 7.68 L 84.42 3.26 L 86.81 3.26 L 86.81 10.58 L 90.65 10.58 L 90.65 0.22 L 80.94 0.22 L 80.94 3.62 C 80.94 4.86 81.01 5.87 80.8 7.25 C 80.8 7.75 80.29 8.04 79.93 8.04 L 79.93 10.14" />
    <path fill="#ffffff" fill-rule="evenodd" d="M 60.22 5.58 L 62.46 7.39 L 64.42 5.58 L 64.42 10.51 L 68.62 10.51 L 68.62 0.22 L 64.42 0.22 L 62.46 2.17 L 60.22 0.22 L 56.3 0.22 L 56.3 10.51 L 60.22 10.51 L 60.22 5.58" />
    <path fill="#ffffff" fill-rule="evenodd" d="M 17.03 7.61 C 16.09 7.61 15.07 6.45 15.07 5.29 C 15.07 3.7 16.09 2.9 17.03 2.9 L 17.03 2.9 C 18.04 2.9 18.99 3.7 18.99 5.22 C 18.99 6.45 18.04 7.61 17.03 7.61 L 17.03 7.61 Z M 17.03 0.07 L 16.81 0.07 C 14.49 0.14 12.32 1.81 11.81 4.28 C 11.74 4.64 11.67 5 11.67 5.36 C 11.67 5.72 11.67 6.09 11.81 6.38 C 12.32 8.62 14.49 10.43 16.81 10.51 L 17.03 10.51 C 19.78 10.51 22.32 8.12 22.32 5.36 C 22.32 2.32 19.78 0.07 17.03 0.07 L 17.03 0.07 Z M 17.03 0.07" />
    <path fill="#ffffff" fill-rule="evenodd" d="M 50.51 7.75 C 49.57 7.75 48.55 6.59 48.55 5.43 C 48.55 3.84 49.57 3.04 50.51 3.04 L 50.51 3.12 C 51.52 3.12 52.46 3.91 52.46 5.43 C 52.46 6.59 51.45 7.75 50.51 7.75 L 50.51 7.75 Z M 50.43 0.22 L 50.22 0.22 C 47.9 0.29 45.72 1.96 45.22 4.42 C 45.14 4.78 45.07 5.14 45.07 5.51 C 45.07 5.87 45.07 6.23 45.22 6.52 C 45.72 8.77 47.9 10.58 50.22 10.65 L 50.43 10.65 C 53.19 10.65 55.72 8.26 55.72 5.51 C 55.72 2.46 53.19 0.22 50.43 0.22 L 50.43 0.22 Z M 50.43 0.22" />
    <path fill="#ffffff" fill-rule="evenodd" d="M 74.71 7.61 C 73.77 7.61 72.75 6.45 72.75 5.29 C 72.75 3.7 73.77 2.9 74.71 2.9 L 74.71 2.9 C 75.72 2.9 76.67 3.7 76.67 5.22 C 76.67 6.45 75.72 7.61 74.71 7.61 L 74.71 7.61 Z M 74.71 0.07 L 74.49 0.07 C 72.17 0.14 70 1.81 69.49 4.28 C 69.42 4.64 69.35 5 69.35 5.36 C 69.35 5.72 69.35 6.09 69.49 6.38 C 70 8.62 72.17 10.43 74.49 10.51 L 74.71 10.51 C 77.46 10.51 80 8.12 80 5.36 C 80 2.32 77.46 0.07 74.71 0.07 L 74.71 0.07 Z M 74.71 0.07" />
    <path fill="#ffffff" fill-rule="evenodd" d="M 28.99 2.17 L 27.25 0.22 L 22.97 0.22 L 22.97 10.51 L 27.25 10.51 L 27.25 5.58 L 28.99 7.39 L 30.72 5.58 L 30.72 10.51 L 34.93 10.51 L 34.93 0.22 L 30.72 0.22 L 28.99 2.17" />
    <path fill="#ffffff" fill-rule="evenodd" d="M 10 5.36 C 11.01 3.99 11.74 2.1 11.74 0.22 L 7.25 0.22 C 7.25 0.72 7.25 2.1 6.59 2.83 C 6.23 3.19 5.72 3.48 5.22 3.48 L 5.22 0.22 L 0.29 0.22 L 0.29 10.51 L 5.22 10.51 L 5.22 6.67 C 5.58 6.67 5.94 7.03 6.23 7.25 C 7.25 7.9 7.25 9.28 7.61 10.51 L 11.88 10.51 C 11.88 10.29 11.81 10.07 11.81 9.86 C 11.59 8.19 11.16 6.3 10 5.36" />
    <path fill="#ffffff" fill-rule="evenodd" d="M 43.91 6.67 C 43.48 6.96 42.9 7.1 42.25 7.1 C 40.8 7.1 39.64 6.3 39.64 5.29 C 39.64 4.28 40.8 3.48 42.25 3.48 C 42.83 3.48 43.41 3.62 43.84 3.84 L 45.22 1.16 L 45.29 1.01 L 45.22 1.01 C 44.06 0.36 42.32 0.22 41.01 0.22 L 40.22 0.22 C 38.84 0.36 37.32 1.59 36.59 2.97 C 35.72 4.49 35.72 6.52 36.59 8.26 C 37.1 9.13 38.19 10 39.35 10.29 C 41.16 11.01 43.55 10.72 45.29 9.71 C 45.29 9.71 45.36 9.71 45.36 9.64 L 45.29 9.49 L 43.91 6.67" />
    <path fill="#ffffff" fill-rule="evenodd" d="M 110.87 6.67 C 110.43 6.96 109.86 7.1 109.2 7.1 C 107.75 7.1 106.59 6.3 106.59 5.29 C 106.59 4.28 107.75 3.48 109.2 3.48 C 109.78 3.48 110.36 3.62 110.8 3.84 L 112.17 1.16 L 112.25 1.01 L 112.17 1.01 C 111.01 0.36 109.28 0.22 107.97 0.22 L 107.17 0.22 C 105.8 0.36 104.28 1.59 103.55 2.97 C 102.68 4.49 102.68 6.52 103.55 8.26 C 104.06 9.13 105.14 10 106.3 10.29 C 108.12 11.01 110.51 10.72 112.25 9.71 C 112.25 9.71 112.32 9.71 112.32 9.64 L 112.25 9.49 L 110.87 6.67" />
</svg>