<?xml version="1.0" encoding="UTF-8" standalone="no"?>
<svg width="14px" height="18px" viewBox="0 0 14 18" version="1.1" xmlns="http://www.w3.org/2000/svg" xmlns:xlink="http://www.w3.org/1999/xlink">
    <!-- Generator: Sketch 3.6.1 (26313) - http://www.bohemiancoding.com/sketch -->
    <title>Mobile icon</title>
    <desc>Created with Sketch.</desc>
    <defs></defs>
    <g id="NEW-MENU" stroke="none" stroke-width="1" fill="none" fill-rule="evenodd">
        <g id="Menu-Expanded-w/User-Copy" transform="translate(-81.000000, -690.000000)" fill="#979797">
            <g id="Group-21" transform="translate(81.000000, 688.000000)">
                <g id="Mobile-icon" transform="translate(0.000000, 2.000000)">
                    <path d="M1,2.99253976 L1,2.99253976 L1,15.0074602 C1,16.0991905 1.90133441,17 3.00335124,17 L10.9966488,17 C12.1052427,17 13,16.1079985 13,15.0074602 L13,2.99253976 C13,1.90080951 12.0986656,1 10.9966488,1 L3.00335124,1 C1.89475731,1 1,1.8920015 1,2.99253976 L1,2.99253976 Z M0,2.99253976 C0,1.33980569 1.34237885,0 3.00335124,0 L10.9966488,0 C12.6553538,0 14,1.35292554 14,2.99253976 L14,15.0074602 C14,16.6601943 12.6576211,18 10.9966488,18 L3.00335124,18 C1.34464615,18 0,16.6470745 0,15.0074602 L0,2.99253976 L0,2.99253976 Z" id="Rectangle-308"></path>
                    <path d="M3,4.0085302 L3,4.0085302 L3,11.9914698 C3,12.5478977 3.44967787,13 3.99961498,13 L10.000385,13 C10.5559714,13 11,12.5527829 11,11.9914698 L11,4.0085302 C11,3.45210227 10.5503221,3 10.000385,3 L3.99961498,3 C3.44402857,3 3,3.44721709 3,4.0085302 L3,4.0085302 Z M2,4.0085302 C2,2.8992496 2.88743329,2 3.99961498,2 L10.000385,2 C11.1047419,2 12,2.90195036 12,4.0085302 L12,11.9914698 C12,13.1007504 11.1125667,14 10.000385,14 L3.99961498,14 C2.89525812,14 2,13.0980496 2,11.9914698 L2,4.0085302 L2,4.0085302 Z" id="Rectangle-308-Copy-4"></path>
                    <rect id="Rectangle-310" x="6" y="15" width="2" height="1"></rect>
                </g>
            </g>
        </g>
    </g>
</svg>